
CASCADE Topology V3, (c) Open Cascade
Locations 0
Curve2ds 6
7 0 0  1 2 2  4.4776903831444415 1.4113257366518417  -4.4773096168555568 1.4124287366518418 
 0 2 8.9550000679290331 2
7 0 0  1 2 2  -4.4773096168555586 1.4124287366518418  -4.4773456168555583 1.4096367366518416 
 0 2 0.0027922320820448808 2
7 0 0  1 2 2  -4.4773456168555583 1.4096367366518416  -4.4776906168555586 -1.4113252633481581 
 0 2 2.8209620210965265 2
7 0 0  1 2 2  -4.4776906168555586 -1.4113252633481583  4.4773093831444415 -1.4124292633481583 
 0 2 8.9550000680522608 2
7 0 0  1 2 2  4.4773093831444415 -1.4124292633481583  4.4773643831444412 -1.2650092633481582 
 0 2 0.14742001025980167 2
7 0 0  1 2 2  4.4773643831444412 -1.2650092633481582  4.4776903831444415 1.4113257366518417 
 0 2 2.676335019854764 2
Curves 6
8 0 8.9550000679290331
7 0 0  1 2 2  6.1201689494467759 -1.2599259285646784 -0.001214511582199318  -2.8348310517737629 -1.2588329276251744 -0.0012244144301063464 
 0 2 8.9550000679290331 2
8 0 0.0027922320820448808
7 0 0  1 2 2  -2.8348310517737647 -1.2588329276251744 -0.0012244144301063464  -2.8348667076712304 -1.2588059288866844 0.0015674594433157107 
 0 2 0.0027922320820448808 2
8 0 2.8209620210965265
7 0 0  1 2 2  -2.8348667076712304 -1.2588059288866844 0.0015674594433157107  -2.8348640362321649 -1.23153156718474 2.822397626903884 
 0 2 2.8209620210965265 2
8 0 8.9550000680522608
7 0 0  1 2 2  -2.8348640362321649 -1.23153156718474 2.822397626903884  6.1201359651116221 -1.232624558455798 2.8224085297050427 
 0 2 8.9550000680522608 2
8 0 0.14742001025980167
7 0 0  1 2 2  6.1201359651116221 -1.232624558455798 2.8224085297050427  6.1201727962298307 -1.2340498875654298 2.6749954145985568 
 0 2 0.14742001025980167 2
8 0 2.676335019854764
7 0 0  1 2 2  6.1201727962298307 -1.2340498875654298 2.6749954145985568  6.1201689494467759 -1.2599259285646784 -0.001214511582199318 
 0 2 2.676335019854764 2
Polygon3D 0
PolygonOnTriangulations 0
Surfaces 1
9 0 0 0 0 1 1 2 2 2 2 -2.8348639001689127 -1.2315208932201926 2.8235015752939674  -2.8352120517680333 -1.2588328806685629 -0.0012243679253189921  
6.1205169651058897 -1.2326246054124093 2.8224084832002556  6.1201688135067691 -1.2599365928607795 -0.0023174600190307704  

-4.4776906168555586 2
4.4776903831444415 2

-1.4124292633481583 2
1.4124287366518418 2

Triangulations 0

TShapes 14
Ve
1e-07
6.12016894944678 -1.25992592856468 -0.00121451158219932
0 0

0101101
*
Ve
1e-07
-2.83483105177376 -1.25883292762517 -0.00122441443010635
0 0

0101101
*
Ed
 1e-07 1 1 0
1  1 0 0 8.95500006792903
2  1 1 0 0 8.95500006792903
0

0101000
+14 0 -13 0 *
Ve
1e-07
-2.83486670767123 -1.25880592888668 0.00156745944331571
0 0

0101101
*
Ed
 1e-07 1 1 0
1  2 0 0 0.00279223208204488
2  2 1 0 0 0.00279223208204488
0

0101000
+13 0 -11 0 *
Ve
1e-07
-2.83486403623216 -1.23153156718474 2.82239762690388
0 0

0101101
*
Ed
 1e-07 1 1 0
1  3 0 0 2.82096202109653
2  3 1 0 0 2.82096202109653
0

0101000
+11 0 -9 0 *
Ve
1e-07
6.12013596511162 -1.2326245584558 2.82240852970504
0 0

0101101
*
Ed
 1e-07 1 1 0
1  4 0 0 8.95500006805226
2  4 1 0 0 8.95500006805226
0

0101000
+9 0 -7 0 *
Ve
1e-07
6.12017279622983 -1.23404988756543 2.67499541459856
0 0

0101101
*
Ed
 1e-07 1 1 0
1  5 0 0 0.147420010259802
2  5 1 0 0 0.147420010259802
0

0101000
+7 0 -5 0 *
Ed
 1e-07 1 1 0
1  6 0 0 2.67633501985476
2  6 1 0 0 2.67633501985476
0

0101000
+5 0 -14 0 *
Wi

0101100
+12 0 +10 0 +8 0 +6 0 +4 0 +3 0 *
Fa
0  1e-07 1 0

1111000
+2 0 *

+1 0 