
CASCADE Topology V3, (c) Open Cascade
Locations 0
Curve2ds 0
Curves 4
1 1.6676519999999999 0.89858199999999999 2.335 1 0 0 
1 6.120152 0.89858199999999999 2.335 0 0 -1 
1 6.120152 0.89858199999999999 -0 -1 0 0 
1 1.6676519999999999 0.89858199999999999 -0 0 0 1 
Polygon3D 0
PolygonOnTriangulations 0
Surfaces 1
1 3.8939019999999993 0.89858199999999966 1.1674999999999998 0 1 0 0 -0 1 1 0 -0 
Triangulations 0

TShapes 10
Ve
1e-07
1.667652 0.898582 2.335
0 0

0101101
*
Ve
1e-07
6.120152 0.898582 2.335
0 0

0101101
*
Ed
 1e-07 1 1 0
1  1 0 0 4.4525
0

0101000
+10 0 -9 0 *
Ve
1e-07
6.120152 0.898582 -0
0 0

0101101
*
Ed
 1e-07 1 1 0
1  2 0 0 2.335
0

0101000
+9 0 -7 0 *
Ve
1e-07
1.667652 0.898582 -0
0 0

0101101
*
Ed
 1e-07 1 1 0
1  3 0 0 4.4525
0

0101000
+7 0 -5 0 *
Ed
 1e-07 1 1 0
1  4 0 0 2.335
0

0101000
+5 0 -10 0 *
Wi

0101100
+8 0 +6 0 +4 0 +3 0 *
Fa
0  1e-07 1 0

1111000
+2 0 *

+1 0 