
CASCADE Topology V3, (c) Open Cascade
Locations 0
Curve2ds 0
Curves 5
1 6.2326519999999999 -1.2139180000000001 2.4175 -0.99999357671172595 -0.0035842063681423846 0 
1 -2.834848 -1.246418 2.4175 -1 0 0 
1 -7.7348480000000004 -1.246418 2.4175 0 1 0 
1 -7.7348480000000004 4.5210819999999998 2.4175 1 0 0 
1 6.2326519999999999 4.5210819999999998 2.4175 0 -1 0 
Polygon3D 0
PolygonOnTriangulations 0
Surfaces 1
1 -0.75684960300049342 1.6434270429578604 2.4175000000000004 -0 -0 -1 -1 0 0 0 1 -0 
Triangulations 0

TShapes 12
Ve
1e-07
6.232652 -1.213918 2.4175
0 0

0101101
*
Ve
1e-07
-2.834848 -1.246418 2.4175
0 0

0101101
*
Ed
 1e-07 1 1 0
1  1 0 0 9.06755824354054
0

0101000
+12 0 -11 0 *
Ve
1e-07
-7.734848 -1.246418 2.4175
0 0

0101101
*
Ed
 1e-07 1 1 0
1  2 0 0 4.9
0

0101000
+11 0 -9 0 *
Ve
1e-07
-7.734848 4.521082 2.4175
0 0

0101101
*
Ed
 1e-07 1 1 0
1  3 0 0 5.7675
0

0101000
+9 0 -7 0 *
Ve
1e-07
6.232652 4.521082 2.4175
0 0

0101101
*
Ed
 1e-07 1 1 0
1  4 0 0 13.9675
0

0101000
+7 0 -5 0 *
Ed
 1e-07 1 1 0
1  5 0 0 5.735
0

0101000
+5 0 -12 0 *
Wi

0101100
+10 0 +8 0 +6 0 +4 0 +3 0 *
Fa
0  1e-07 1 0

1111000
+2 0 *

+1 0 