
CASCADE Topology V3, (c) Open Cascade
Locations 0
Curve2ds 7
7 0 0  1 2 2  7.0611489680040984 1.2342496225236508  6.8836509680040985 1.2348126225236506 
 0 2 0.17749889287823736 2
7 0 0  1 2 2  6.8836509680040985 1.2348126225236506  -7.084295031995901 1.2053996225236507 
 0 2 13.967976968175634 2
7 0 0  1 2 2  -7.084295031995901 1.2053996225236507  -7.0852410319959009 1.0812786225236508 
 0 2 0.12412460496211059 2
7 0 0  1 2 2  -7.0852410319959009 1.0812786225236508  -7.0923950319959017 -1.1977733774763493 
 0 2 2.2790632282628756 2
7 0 0  1 2 2  -7.0923950319959017 -1.1977733774763493  7.0524649680041014 -1.2426913774763493 
 0 2 14.144931319957834 2
7 0 0  1 2 2  7.0524649680040987 -1.2426913774763493  7.0533859680040987 -1.2392693774763492 
 0 2 0.0035437727071583125 2
7 0 0  1 2 2  7.0533859680040987 -1.2392693774763492  7.0611489680040984 1.2342496225236508 
 0 2 2.4735311818390322 2
Curves 7
8 0 0.17749889287823736
7 0 0  1 2 2  6.4104782599305903 4.5152607371128646 2.4764980447388494  6.2329802410928652 4.5158177348868307 2.4765039745093782 
 0 2 0.17749889287823736 2
8 0 13.967976968175634
7 0 0  1 2 2  6.2329802410928652 4.5158177348868307 2.4765039745093782  -7.7347330737336861 4.5605447361762037 2.4032589497110308 
 0 2 13.967976968175634 2
8 0 0.12412460496211059
7 0 0  1 2 2  -7.7347330737336861 4.5605447361762037 2.4032589497110308  -7.735284787111568 4.5620544767991413 2.279144752889716 
 0 2 0.12412460496211059 2
8 0 2.2790632282628756
7 0 0  1 2 2  -7.735284787111568 4.5620544767991413 2.279144752889716  -7.7351991816201844 4.5897431793223804 0.00024972967248149125 
 0 2 2.2790632282628756 2
8 0 14.144931319957832
7 0 0  1 2 2  -7.7351991816201844 4.5897431793223804 0.00024972967248149125  6.409662485980169 4.5453565234141609 -0.0002752003315931173 
 0 2 14.144931319957834 2
8 0 0.0035437727071583125
7 0 0  1 2 2  6.4096624859801663 4.5453565234141609 -0.0002752003315931173  6.4105726066268494 4.5453120573002685 0.0031494205486208848 
 0 2 0.0035437727071583125 2
8 0 2.4735311818390322
7 0 0  1 2 2  6.4105726066268494 4.5453120573002685 0.0031494205486208848  6.4104782599305903 4.5152607371128646 2.4764980447388494 
 0 2 2.4735311818390322 2
Polygon3D 0
PolygonOnTriangulations 0
Surfaces 1
9 0 0 0 0 1 1 2 2 2 2 -7.7350564971198583 4.5902884500643477 -0.044664733977342053  -7.7429264249949696 4.5602134145705921 2.4326442145575982  
6.418346399405201 4.545328938209992 -0.00024794812052997273  6.4104764715300906 4.5152539027162364 2.4770610004144107  

-7.0923950319959017 2
7.0611489680040984 2

-1.2426913774763493 2
1.2348126225236509 2

Triangulations 0

TShapes 16
Ve
1e-07
6.41047825993059 4.51526073711286 2.47649804473885
0 0

0101101
*
Ve
1e-07
6.23298024109287 4.51581773488683 2.47650397450938
0 0

0101101
*
Ed
 1e-07 1 1 0
1  1 0 0 0.177498892878237
2  1 1 0 0 0.177498892878237
0

0101000
+16 0 -15 0 *
Ve
1e-07
-7.73473307373369 4.5605447361762 2.40325894971103
0 0

0101101
*
Ed
 1e-07 1 1 0
1  2 0 0 13.9679769681756
2  2 1 0 0 13.9679769681756
0

0101000
+15 0 -13 0 *
Ve
1e-07
-7.73528478711157 4.56205447679914 2.27914475288972
0 0

0101101
*
Ed
 1e-07 1 1 0
1  3 0 0 0.124124604962111
2  3 1 0 0 0.124124604962111
0

0101000
+13 0 -11 0 *
Ve
1e-07
-7.73519918162018 4.58974317932238 0.000249729672481491
0 0

0101101
*
Ed
 1e-07 1 1 0
1  4 0 0 2.27906322826288
2  4 1 0 0 2.27906322826288
0

0101000
+11 0 -9 0 *
Ve
1e-07
6.40966248598017 4.54535652341416 -0.000275200331593117
0 0

0101101
*
Ed
 1e-07 1 1 0
1  5 0 0 14.1449313199578
2  5 1 0 0 14.1449313199578
0

0101000
+9 0 -7 0 *
Ve
1e-07
6.41057260662685 4.54531205730027 0.00314942054862088
0 0

0101101
*
Ed
 1e-07 1 1 0
1  6 0 0 0.00354377270715831
2  6 1 0 0 0.00354377270715831
0

0101000
+7 0 -5 0 *
Ed
 1e-07 1 1 0
1  7 0 0 2.47353118183903
2  7 1 0 0 2.47353118183903
0

0101000
+5 0 -16 0 *
Wi

0101100
+14 0 +12 0 +10 0 +8 0 +6 0 +4 0 +3 0 *
Fa
0  1e-07 1 0

1111000
+2 0 *

+1 0 