
CASCADE Topology V3, (c) Open Cascade
Locations 0
Curve2ds 0
Curves 17
1 -7.6978479999999996 -0.19236600000000001 3.1537790000000001 0 0.96770592390340415 0.25208182172116023 
1 -7.6978479999999996 -0.055671999999999999 3.189387 0 0.97357375364030452 0.22837282286368391 
1 -7.6978479999999996 0.081850999999999993 3.2216459999999998 0 0.97885874218571767 0.20453743629613363 
1 -7.6978479999999996 0.22012000000000001 3.2505380000000001 0 0.98356413011525212 0.18055913699014928 
1 -7.6978479999999996 0.35905399999999998 3.276043 0 0.98767959413691531 0.15648967801595767 
1 -7.6978479999999996 0.49856899999999998 3.2981479999999999 0 0.99120692827046897 0.13232091803120674 
1 -7.6978479999999996 0.63858199999999998 3.3168389999999999 0 0 -1 
1 -7.6978479999999996 0.63858199999999998 0 0 -1 0 
1 -7.6978479999999996 -1.246418 0 0 0 1 
1 -7.6978479999999996 -1.246418 2.7513130000000001 0 0.90034853678246496 0.43516952135193759 
1 -7.6978479999999996 -1.1192390000000001 2.812783 0 0.91070776975014356 0.4130512778296655 
1 -7.6978479999999996 -0.99059600000000003 2.8711289999999998 0 0.92052276747776751 0.39068892300022012 
1 -7.6978479999999996 -0.86056699999999997 2.9263159999999999 0 0.92978859332871666 0.36809397131141164 
1 -7.6978479999999996 -0.72923000000000004 2.9783110000000002 0 0.93850195762024458 0.34527391378870315 
1 -7.6978479999999996 -0.596661 3.0270830000000002 0 0.94665358209231099 0.32225299922855061 
1 -7.6978479999999996 -0.46294099999999999 3.072603 0 0.95424285830835087 0.29903271956009853 
1 -7.6978479999999996 -0.32814900000000002 3.114843 0 0.96126009912238675 0.27564292451506689 
Polygon3D 0
PolygonOnTriangulations 0
Surfaces 1
1 -7.6978479999999951 -0.25344431692853697 1.5498941248153761 -1 -0 -0 0 0 -1 0 -1 0 
Triangulations 0

TShapes 36
Ve
1e-07
-7.697848 -0.192366 3.153779
0 0

0101101
*
Ve
1e-07
-7.697848 -0.055672 3.189387
0 0

0101101
*
Ed
 1e-07 1 1 0
1  1 0 0 0.141255723069899
0

0101000
+36 0 -35 0 *
Ve
1e-07
-7.697848 0.081851 3.221646
0 0

0101101
*
Ed
 1e-07 1 1 0
1  2 0 0 0.141255862214635
0

0101000
+35 0 -33 0 *
Ve
1e-07
-7.697848 0.22012 3.250538
0 0

0101101
*
Ed
 1e-07 1 1 0
1  3 0 0 0.141255315032745
0

0101000
+33 0 -31 0 *
Ve
1e-07
-7.697848 0.359054 3.276043
0 0

0101101
*
Ed
 1e-07 1 1 0
1  4 0 0 0.141255659642366
0

0101000
+31 0 -29 0 *
Ve
1e-07
-7.697848 0.498569 3.298148
0 0

0101101
*
Ed
 1e-07 1 1 0
1  5 0 0 0.141255322908554
0

0101000
+29 0 -27 0 *
Ve
1e-07
-7.697848 0.638582 3.316839
0 0

0101101
*
Ed
 1e-07 1 1 0
1  6 0 0 0.141255065926854
0

0101000
+27 0 -25 0 *
Ve
1e-07
-7.697848 0.638582 0
0 0

0101101
*
Ed
 1e-07 1 1 0
1  7 0 0 3.316839
0

0101000
+25 0 -23 0 *
Ve
1e-07
-7.697848 -1.246418 0
0 0

0101101
*
Ed
 1e-07 1 1 0
1  8 0 0 1.885
0

0101000
+23 0 -21 0 *
Ve
1e-07
-7.697848 -1.246418 2.751313
0 0

0101101
*
Ed
 1e-07 1 1 0
1  9 0 0 2.751313
0

0101000
+21 0 -19 0 *
Ve
1e-07
-7.697848 -1.119239 2.812783
0 0

0101101
*
Ed
 1e-07 1 1 0
1  10 0 0 0.141255297036961
0

0101000
+19 0 -17 0 *
Ve
1e-07
-7.697848 -0.990596 2.871129
0 0

0101101
*
Ed
 1e-07 1 1 0
1  11 0 0 0.141256069480217
0

0101000
+17 0 -15 0 *
Ve
1e-07
-7.697848 -0.860567 2.926316
0 0

0101101
*
Ed
 1e-07 1 1 0
1  12 0 0 0.14125560452598
0

0101000
+15 0 -13 0 *
Ve
1e-07
-7.697848 -0.72923 2.978311
0 0

0101101
*
Ed
 1e-07 1 1 0
1  13 0 0 0.141254690520351
0

0101000
+13 0 -11 0 *
Ve
1e-07
-7.697848 -0.596661 3.027083
0 0

0101101
*
Ed
 1e-07 1 1 0
1  14 0 0 0.141255965343061
0

0101000
+11 0 -9 0 *
Ve
1e-07
-7.697848 -0.462941 3.072603
0 0

0101101
*
Ed
 1e-07 1 1 0
1  15 0 0 0.141255473522267
0

0101000
+9 0 -7 0 *
Ve
1e-07
-7.697848 -0.328149 3.114843
0 0

0101101
*
Ed
 1e-07 1 1 0
1  16 0 0 0.141255445431318
0

0101000
+7 0 -5 0 *
Ed
 1e-07 1 1 0
1  17 0 0 0.141255212948054
0

0101000
+5 0 -36 0 *
Wi

0101100
+34 0 +32 0 +30 0 +28 0 +26 0 +24 0 +22 0 +20 0 +18 0 +16 0 
+14 0 +12 0 +10 0 +8 0 +6 0 +4 0 +3 0 *
Fa
0  1e-07 1 0

1111000
+2 0 *

+1 0 