
CASCADE Topology V3, (c) Open Cascade
Locations 0
Curve2ds 0
Curves 4
1 -9.2348479999999995 -2.7464179999999998 -0.23499999999999999 1 0 0 
1 7.6326520000000002 -2.7464179999999998 -0.23499999999999999 0 1 0 
1 7.6326520000000002 5.9210820000000002 -0.23499999999999999 -1 0 0 
1 -9.2348479999999995 5.9210820000000002 -0.23499999999999999 0 -1 0 
Polygon3D 0
PolygonOnTriangulations 0
Surfaces 1
1 -0.80109799999999998 1.5873319999999997 -0.23499999999999993 0 0 1 1 0 -0 -0 1 0 
Triangulations 0

TShapes 10
Ve
1e-07
-9.234848 -2.746418 -0.235
0 0

0101101
*
Ve
1e-07
7.632652 -2.746418 -0.235
0 0

0101101
*
Ed
 1e-07 1 1 0
1  1 0 0 16.8675
0

0101000
+10 0 -9 0 *
Ve
1e-07
7.632652 5.921082 -0.235
0 0

0101101
*
Ed
 1e-07 1 1 0
1  2 0 0 8.6675
0

0101000
+9 0 -7 0 *
Ve
1e-07
-9.234848 5.921082 -0.235
0 0

0101101
*
Ed
 1e-07 1 1 0
1  3 0 0 16.8675
0

0101000
+7 0 -5 0 *
Ed
 1e-07 1 1 0
1  4 0 0 8.6675
0

0101000
+5 0 -10 0 *
Wi

0101100
+8 0 +6 0 +4 0 +3 0 *
Fa
0  1e-07 1 0

1111000
+2 0 *

+1 0 