
CASCADE Topology V3, (c) Open Cascade
Locations 0
Curve2ds 0
Curves 4
1 1.620152 4.408582 0 0 -1 0 
1 1.620152 -1.101418 0 0 0 1 
1 1.620152 -1.101418 2.335 0 1 0 
1 1.620152 4.408582 2.335 0 0 -1 
Polygon3D 0
PolygonOnTriangulations 0
Surfaces 1
1 1.6201519999999998 1.6535819999999999 1.1675 -1 -0 -0 0 0 -1 0 -1 0 
Triangulations 0

TShapes 10
Ve
1e-07
1.620152 4.408582 0
0 0

0101101
*
Ve
1e-07
1.620152 -1.101418 0
0 0

0101101
*
Ed
 1e-07 1 1 0
1  1 0 0 5.51
0

0101000
+10 0 -9 0 *
Ve
1e-07
1.620152 -1.101418 2.335
0 0

0101101
*
Ed
 1e-07 1 1 0
1  2 0 0 2.335
0

0101000
+9 0 -7 0 *
Ve
1e-07
1.620152 4.408582 2.335
0 0

0101101
*
Ed
 1e-07 1 1 0
1  3 0 0 5.51
0

0101000
+7 0 -5 0 *
Ed
 1e-07 1 1 0
1  4 0 0 2.335
0

0101000
+5 0 -10 0 *
Wi

0101100
+8 0 +6 0 +4 0 +3 0 *
Fa
0  1e-07 1 0

1111000
+2 0 *

+1 0 