
CASCADE Topology V3, (c) Open Cascade
Locations 0
Curve2ds 0
Curves 5
1 1.5726519999999999 -1.101418 2.2284999999999999 -0.99945928426119457 -0.032880679799857794 0 
1 -2.834848 -1.246418 2.2284999999999999 -1 0 0 
1 -7.7348480000000004 -1.246418 2.2284999999999999 0 1 0 
1 -7.7348480000000004 4.408582 2.2284999999999999 1 0 0 
1 1.5726519999999999 4.408582 2.2284999999999999 0 -1 0 
Polygon3D 0
PolygonOnTriangulations 0
Surfaces 1
1 -3.1035593223952231 1.605003841090541 2.2285000000000004 -0 -0 -1 -1 0 0 0 1 -0 
Triangulations 0

TShapes 12
Ve
1e-07
1.572652 -1.101418 2.2285
0 0

0101101
*
Ve
1e-07
-2.834848 -1.246418 2.2285
0 0

0101101
*
Ed
 1e-07 1 1 0
1  1 0 0 4.40988449395219
0

0101000
+12 0 -11 0 *
Ve
1e-07
-7.734848 -1.246418 2.2285
0 0

0101101
*
Ed
 1e-07 1 1 0
1  2 0 0 4.9
0

0101000
+11 0 -9 0 *
Ve
1e-07
-7.734848 4.408582 2.2285
0 0

0101101
*
Ed
 1e-07 1 1 0
1  3 0 0 5.655
0

0101000
+9 0 -7 0 *
Ve
1e-07
1.572652 4.408582 2.2285
0 0

0101101
*
Ed
 1e-07 1 1 0
1  4 0 0 9.3075
0

0101000
+7 0 -5 0 *
Ed
 1e-07 1 1 0
1  5 0 0 5.51
0

0101000
+5 0 -12 0 *
Wi

0101100
+10 0 +8 0 +6 0 +4 0 +3 0 *
Fa
0  1e-07 1 0

1111000
+2 0 *

+1 0 