
CASCADE Topology V3, (c) Open Cascade
Locations 0
Curve2ds 0
Curves 4
1 1.6676519999999999 0.94608199999999998 2.2284999999999999 1 0 0 
1 6.120152 0.94608199999999998 2.2284999999999999 0 1 0 
1 6.120152 4.408582 2.2284999999999999 -1 0 0 
1 1.6676519999999999 4.408582 2.2284999999999999 0 -1 0 
Polygon3D 0
PolygonOnTriangulations 0
Surfaces 1
1 3.8939020000000011 2.6773320000000003 2.2284999999999999 0 0 1 1 0 -0 -0 1 0 
Triangulations 0

TShapes 10
Ve
1e-07
1.667652 0.946082 2.2285
0 0

0101101
*
Ve
1e-07
6.120152 0.946082 2.2285
0 0

0101101
*
Ed
 1e-07 1 1 0
1  1 0 0 4.4525
0

0101000
+10 0 -9 0 *
Ve
1e-07
6.120152 4.408582 2.2285
0 0

0101101
*
Ed
 1e-07 1 1 0
1  2 0 0 3.4625
0

0101000
+9 0 -7 0 *
Ve
1e-07
1.667652 4.408582 2.2285
0 0

0101101
*
Ed
 1e-07 1 1 0
1  3 0 0 4.4525
0

0101000
+7 0 -5 0 *
Ed
 1e-07 1 1 0
1  4 0 0 3.4625
0

0101000
+5 0 -10 0 *
Wi

0101100
+8 0 +6 0 +4 0 +3 0 *
Fa
0  1e-07 1 0

1111000
+2 0 *

+1 0 