
CASCADE Topology V3, (c) Open Cascade
Locations 0
Curve2ds 0
Curves 16
1 -7.6978479999999996 0.63858199999999998 0 0 0 1 
1 -7.6978479999999996 0.63858199999999998 3.3168389999999999 0 0.99418493772608418 0.10768616252138465 
1 -7.6978479999999996 0.78351899999999997 3.332538 0 0.99658317096172078 0.082595298630622899 
1 -7.6978479999999996 0.92880399999999996 3.344579 0 0.99834851687621184 0.057447705359467159 
1 -7.6978479999999996 1.0743480000000001 3.352954 0 0.99947928688166388 0.03226693500350817 
1 -7.6978479999999996 1.220056 3.3576579999999998 0 0.99997504070568444 0.007065264727170676 
1 -7.6978479999999996 1.3658360000000001 3.3586879999999999 0 0.99983539713186187 -0.018143280909807651 
1 -7.6978479999999996 1.5115959999999999 3.3560430000000001 0 0.99906046325211051 -0.043338098325589255 
1 -7.6978479999999996 1.657243 3.3497249999999998 0 0.99765072485716488 -0.068505701893883136 
1 -7.6978479999999996 1.802684 3.3397380000000001 0 0.995606931783242 -0.093631391024371804 
1 -7.6978479999999996 1.9478279999999999 3.3260879999999999 0 0.99293139351674709 -0.11868971214427561 
1 -7.6978479999999996 2.092581 3.3087849999999999 0 0.98962341088942118 -0.14368543635173237 
1 -7.6978479999999996 2.2368519999999998 3.2878379999999998 0 0.98568836928369175 -0.16857769324218641 
1 -7.6978479999999996 2.3805499999999999 3.2632620000000001 0 0.98112611614386103 -0.19336893292476739 
1 -7.6978479999999996 2.5235820000000002 3.2350720000000002 0 0 -1 
1 -7.6978479999999996 2.5235820000000002 0 0 -1 0 
Polygon3D 0
PolygonOnTriangulations 0
Surfaces 1
1 -7.6978480000000005 1.5740310523042973 1.6491583624987227 -1 -0 -0 0 0 -1 0 -1 0 
Triangulations 0

TShapes 34
Ve
1e-07
-7.697848 0.638582 0
0 0

0101101
*
Ve
1e-07
-7.697848 0.638582 3.316839
0 0

0101101
*
Ed
 1e-07 1 1 0
1  1 0 0 3.316839
0

0101000
+34 0 -33 0 *
Ve
1e-07
-7.697848 0.783519 3.332538
0 0

0101101
*
Ed
 1e-07 1 1 0
1  2 0 0 0.145784747384629
0

0101000
+33 0 -31 0 *
Ve
1e-07
-7.697848 0.928804 3.344579
0 0

0101101
*
Ed
 1e-07 1 1 0
1  3 0 0 0.145783115983985
0

0101000
+31 0 -29 0 *
Ve
1e-07
-7.697848 1.074348 3.352954
0 0

0101101
*
Ed
 1e-07 1 1 0
1  4 0 0 0.145784761072617
0

0101000
+29 0 -27 0 *
Ve
1e-07
-7.697848 1.220056 3.357658
0 0

0101101
*
Ed
 1e-07 1 1 0
1  5 0 0 0.14578391159521
0

0101000
+27 0 -25 0 *
Ve
1e-07
-7.697848 1.365836 3.358688
0 0

0101101
*
Ed
 1e-07 1 1 0
1  6 0 0 0.145783638656744
0

0101000
+25 0 -23 0 *
Ve
1e-07
-7.697848 1.511596 3.356043
0 0

0101101
*
Ed
 1e-07 1 1 0
1  7 0 0 0.145783996463946
0

0101000
+23 0 -21 0 *
Ve
1e-07
-7.697848 1.657243 3.349725
0 0

0101101
*
Ed
 1e-07 1 1 0
1  8 0 0 0.145783969396501
0

0101000
+21 0 -19 0 *
Ve
1e-07
-7.697848 1.802684 3.339738
0 0

0101101
*
Ed
 1e-07 1 1 0
1  9 0 0 0.145783485518765
0

0101000
+19 0 -17 0 *
Ve
1e-07
-7.697848 1.947828 3.326088
0 0

0101101
*
Ed
 1e-07 1 1 0
1  10 0 0 0.14578444099423
0

0101000
+17 0 -15 0 *
Ve
1e-07
-7.697848 2.092581 3.308785
0 0

0101101
*
Ed
 1e-07 1 1 0
1  11 0 0 0.145783486094962
0

0101000
+15 0 -13 0 *
Ve
1e-07
-7.697848 2.236852 3.287838
0 0

0101101
*
Ed
 1e-07 1 1 0
1  12 0 0 0.145783737947687
0

0101000
+13 0 -11 0 *
Ve
1e-07
-7.697848 2.38055 3.263262
0 0

0101101
*
Ed
 1e-07 1 1 0
1  13 0 0 0.145784412678448
0

0101000
+11 0 -9 0 *
Ve
1e-07
-7.697848 2.523582 3.235072
0 0

0101101
*
Ed
 1e-07 1 1 0
1  14 0 0 0.145783500863438
0

0101000
+9 0 -7 0 *
Ve
1e-07
-7.697848 2.523582 0
0 0

0101101
*
Ed
 1e-07 1 1 0
1  15 0 0 3.235072
0

0101000
+7 0 -5 0 *
Ed
 1e-07 1 1 0
1  16 0 0 1.885
0

0101000
+5 0 -34 0 *
Wi

0101100
+32 0 +30 0 +28 0 +26 0 +24 0 +22 0 +20 0 +18 0 +16 0 +14 0 
+12 0 +10 0 +8 0 +6 0 +4 0 +3 0 *
Fa
0  1e-07 1 0

1111000
+2 0 *

+1 0 