
CASCADE Topology V3, (c) Open Cascade
Locations 0
Curve2ds 0
Curves 17
1 -7.6978479999999996 2.5235820000000002 -0 0 0 1 
1 -7.6978479999999996 2.5235820000000002 3.2350720000000002 0 0.97593720292854458 -0.21805177353098737 
1 -7.6978479999999996 2.6660349999999999 3.2032440000000002 0 0.97012355642710191 -0.24261138733627374 
1 -7.6978479999999996 2.8076400000000001 3.1678310000000001 0 0.96369016141316055 -0.26702298177399708 
1 -7.6978479999999996 2.948305 3.1288550000000002 0 0.95664815613054277 -0.2912461250764255 
1 -7.6978479999999996 3.0879430000000001 3.0863429999999998 0 0.94898977254132699 -0.31530685310021478 
1 -7.6978479999999996 3.2264629999999999 3.0403190000000002 0 0.94073238088149314 -0.33914980106294812 
1 -7.6978479999999996 3.3637769999999998 2.990815 0 0.93187282560916973 -0.36278511117627416 
1 -7.6978479999999996 3.4997980000000002 2.9378609999999998 0 0.92242333822426514 -0.38618024949394186 
1 -7.6978479999999996 3.6344400000000001 2.8814920000000002 0 0.91238035948814578 -0.40934347389482328 
1 -7.6978479999999996 3.7676159999999999 2.821742 0 0.90176207022651522 -0.43223277143315891 
1 -7.6978479999999996 3.8992420000000001 2.758651 0 0.89056611905913052 -0.45485380902434869 
1 -7.6978479999999996 4.0292339999999998 2.6922579999999998 0 0.87880459358138885 -0.47718181681645194 
1 -7.6978479999999996 4.1575090000000001 2.6226060000000002 0 0.8664787875831188 -0.49921389270380712 
1 -7.6978479999999996 4.2839850000000004 2.5497380000000001 0 0.85360969518172758 -0.52091312931405176 
1 -7.6978479999999996 4.408582 2.473703 0 0 -1 
1 -7.6978479999999996 4.408582 0 0 -1 -0 
Polygon3D 0
PolygonOnTriangulations 0
Surfaces 1
1 -7.6978480000000014 3.3963616404532559 1.4774397612997372 -1 -0 -0 0 0 -1 0 -1 0 
Triangulations 0

TShapes 36
Ve
1e-07
-7.697848 2.523582 -0
0 0

0101101
*
Ve
1e-07
-7.697848 2.523582 3.235072
0 0

0101101
*
Ed
 1e-07 1 1 0
1  1 0 0 3.235072
0

0101000
+36 0 -35 0 *
Ve
1e-07
-7.697848 2.666035 3.203244
0 0

0101101
*
Ed
 1e-07 1 1 0
1  2 0 0 0.145965334216724
0

0101000
+35 0 -33 0 *
Ve
1e-07
-7.697848 2.80764 3.167831
0 0

0101101
*
Ed
 1e-07 1 1 0
1  3 0 0 0.145965943267599
0

0101000
+33 0 -31 0 *
Ve
1e-07
-7.697848 2.948305 3.128855
0 0

0101101
*
Ed
 1e-07 1 1 0
1  4 0 0 0.145964964292805
0

0101000
+31 0 -29 0 *
Ve
1e-07
-7.697848 3.087943 3.086343
0 0

0101101
*
Ed
 1e-07 1 1 0
1  5 0 0 0.145965890495006
0

0101000
+29 0 -27 0 *
Ve
1e-07
-7.697848 3.226463 3.040319
0 0

0101101
*
Ed
 1e-07 1 1 0
1  6 0 0 0.145965745899509
0

0101000
+27 0 -25 0 *
Ve
1e-07
-7.697848 3.363777 2.990815
0 0

0101101
*
Ed
 1e-07 1 1 0
1  7 0 0 0.145964997900182
0

0101000
+25 0 -23 0 *
Ve
1e-07
-7.697848 3.499798 2.937861
0 0

0101101
*
Ed
 1e-07 1 1 0
1  8 0 0 0.145965196389414
0

0101000
+23 0 -21 0 *
Ve
1e-07
-7.697848 3.63444 2.881492
0 0

0101101
*
Ed
 1e-07 1 1 0
1  9 0 0 0.145965517588915
0

0101000
+21 0 -19 0 *
Ve
1e-07
-7.697848 3.767616 2.821742
0 0

0101101
*
Ed
 1e-07 1 1 0
1  10 0 0 0.145965439320409
0

0101000
+19 0 -17 0 *
Ve
1e-07
-7.697848 3.899242 2.758651
0 0

0101101
*
Ed
 1e-07 1 1 0
1  11 0 0 0.145965332038125
0

0101000
+17 0 -15 0 *
Ve
1e-07
-7.697848 4.029234 2.692258
0 0

0101101
*
Ed
 1e-07 1 1 0
1  12 0 0 0.145965579891288
0

0101000
+15 0 -13 0 *
Ve
1e-07
-7.697848 4.157509 2.622606
0 0

0101101
*
Ed
 1e-07 1 1 0
1  13 0 0 0.145965327146552
0

0101000
+13 0 -11 0 *
Ve
1e-07
-7.697848 4.283985 2.549738
0 0

0101101
*
Ed
 1e-07 1 1 0
1  14 0 0 0.145965489071904
0

0101000
+11 0 -9 0 *
Ve
1e-07
-7.697848 4.408582 2.473703
0 0

0101101
*
Ed
 1e-07 1 1 0
1  15 0 0 0.145964836977951
0

0101000
+9 0 -7 0 *
Ve
1e-07
-7.697848 4.408582 0
0 0

0101101
*
Ed
 1e-07 1 1 0
1  16 0 0 2.473703
0

0101000
+7 0 -5 0 *
Ed
 1e-07 1 1 0
1  17 0 0 1.885
0

0101000
+5 0 -36 0 *
Wi

0101100
+34 0 +32 0 +30 0 +28 0 +26 0 +24 0 +22 0 +20 0 +18 0 +16 0 
+14 0 +12 0 +10 0 +8 0 +6 0 +4 0 +3 0 *
Fa
0  1e-07 1 0

1111000
+2 0 *

+1 0 