
CASCADE Topology V3, (c) Open Cascade
Locations 0
Curve2ds 0
Curves 4
1 -4.4681819999999997 -1.2094180000000001 2.7513130000000001 0 0 -1 
1 -4.4681819999999997 -1.2094180000000001 -0 1 0 0 
1 -2.834848 -1.2094180000000001 0 0 0 1 
1 -2.834848 -1.2094180000000001 2.7513130000000001 -1 0 0 
Polygon3D 0
PolygonOnTriangulations 0
Surfaces 1
1 -3.6515150000000003 -1.2094180000000003 1.3756565000000001 -0 -1 -0 0 0 -1 1 -0 0 
Triangulations 0

TShapes 10
Ve
1e-07
-4.468182 -1.209418 2.751313
0 0

0101101
*
Ve
1e-07
-4.468182 -1.209418 -0
0 0

0101101
*
Ed
 1e-07 1 1 0
1  1 0 0 2.751313
0

0101000
+10 0 -9 0 *
Ve
1e-07
-2.834848 -1.209418 0
0 0

0101101
*
Ed
 1e-07 1 1 0
1  2 0 0 1.633334
0

0101000
+9 0 -7 0 *
Ve
1e-07
-2.834848 -1.209418 2.751313
0 0

0101101
*
Ed
 1e-07 1 1 0
1  3 0 0 2.751313
0

0101000
+7 0 -5 0 *
Ed
 1e-07 1 1 0
1  4 0 0 1.633334
0

0101000
+5 0 -10 0 *
Wi

0101100
+8 0 +6 0 +4 0 +3 0 *
Fa
0  1e-07 1 0

1111000
+2 0 *

+1 0 