
CASCADE Topology V3, (c) Open Cascade
Locations 0
Curve2ds 23
7 0 0  1 2 2  1.0045882512463531 2.921877768036687  -1.468600748753647 2.9397307680366871 
 0 2 2.4732534361302321 2
7 0 0  1 2 2  -1.468600748753647 2.9397307680366871  -1.4741407487536469 2.9377327680366871 
 0 2 0.0058892787334272464 2
7 0 0  1 2 2  -1.4741407487536469 2.9377327680366871  -1.5152297487536468 -2.8619792319633119 
 0 2 5.7998575490148889 2
7 0 0  1 2 2  -1.5152297487536468 -2.8619792319633128  1.1606732512463533 -2.8812952319633127 
 0 2 2.675972715343899 2
7 0 0  1 2 2  1.1606732512463531 -2.8812952319633127  1.1662142512463531 -2.8792972319633128 
 0 2 0.0058902194356407287 2
7 0 0  1 2 2  1.1662142512463531 -2.8792972319633128  1.236033251246353 -2.737838231963313 
 0 2 0.1577508841243051 2
7 0 0  1 2 2  1.236033251246353 -2.737838231963313  1.3073282512463531 -2.5923592319633126 
 0 2 0.16200961843668452 2
7 0 0  1 2 2  1.3073282512463531 -2.5923592319633126  1.3970102512463529 -2.4039402319633125 
 0 2 0.20867338278994751 2
7 0 0  1 2 2  1.3970102512463529 -2.4039402319633125  1.507717251246353 -2.1141652319633129 
 0 2 0.31020249914209258 2
7 0 0  1 2 2  1.507717251246353 -2.1141652319633129  1.5834572512463532 -1.9094932319633127 
 0 2 0.21823651203224448 2
7 0 0  1 2 2  1.5834572512463532 -1.9094932319633127  1.6644742512463531 -1.6199402319633125 
 0 2 0.30067373363498195 2
7 0 0  1 2 2  1.6644742512463531 -1.6199402319633125  1.7239972512463531 -1.4000812319633127 
 0 2 0.22777393926874068 2
7 0 0  1 2 2  1.7239972512463531 -1.4000812319633127  1.7763392512463532 -1.1136532319633126 
 0 2 0.29117122822833991 2
7 0 0  1 2 2  1.7763392512463532 -1.1136532319633126  1.8174552512463529 -0.87995923196331272 
 0 2 0.23728339826460673 2
7 0 0  1 2 2  1.8174552512463529 -0.87995923196331272  1.842415251246353 -0.59937423196331263 
 0 2 0.28169299569744366 2
7 0 0  1 2 2  1.842415251246353 -0.59937423196331263  1.863052251246353 -0.35347023196331262 
 0 2 0.24676844001006285 2
7 0 0  1 2 2  1.863052251246353 -0.35347023196331262  1.862169251246353 -0.081237231963312617 
 0 2 0.27223443202137387 2
7 0 0  1 2 2  1.862169251246353 -0.081237231963312617  1.8409852512463529 0.43857976803668736 
 0 2 0.52024847462054125 2
7 0 0  1 2 2  1.8409852512463529 0.43857976803668736  1.766144251246353 0.96172776803668736 
 0 2 0.52847422376592779 2
7 0 0  1 2 2  1.766144251246353 0.96172776803668736  1.6438712512463529 1.4758657680366873 
 0 2 0.5284775960937228 2
7 0 0  1 2 2  1.6438712512463529 1.4758657680366873  1.475185251246353 1.9767007680366875 
 0 2 0.52847957748715335 2
7 0 0  1 2 2  1.475185251246353 1.9767007680366875  1.261496251246353 2.4600497680366873 
 0 2 0.52847823467196831 2
7 0 0  1 2 2  1.261496251246353 2.4600497680366873  1.0045882512463531 2.921877768036687 
 0 2 0.52847594273344145 2
Curves 23
8 0 2.4732534361302321
7 0 0  1 2 2  6.3085456103066653 4.4080826831973523 2.4756407668477673  6.2614246014253654 4.4084137541243651 0.0028362739199399023 
 0 2 2.4732534361302321 2
8 0 0.0058892787334272464
7 0 0  1 2 2  6.2614246014253654 4.4084137541243651 0.0028362739199399023  6.2613046113786774 4.4063766088776841 -0.0026881487315795205 
 0 2 0.0058892787334272464 2
8 0 5.7998575490148889
7 0 0  1 2 2  6.2613046113786774 4.4063766088776841 -0.0026881487315795205  6.2194322771422001 -1.3933297336028296 -0.0018897241093029926 
 0 2 5.7998575490148889 2
8 0 2.675972715343899
7 0 0  1 2 2  6.2194322771422001 -1.3933297336028305 -0.0018897241093029926  6.2704155439029892 -1.3936876262635169 2.6735972505718002 
 0 2 2.675972715343899 2
8 0 0.0058902194356407287
7 0 0  1 2 2  6.2704155439029892 -1.3936876262635169 2.6735972505717998  6.2705355530535503 -1.3916504739324544 2.6791226730157245 
 0 2 0.0058902194356407287 2
8 0 0.1577508841243051
7 0 0  1 2 2  6.2705355530535503 -1.3916504739324544 2.6791226730157245  6.2728715158920165 -1.2497040873484413 2.7479057236558297 
 0 2 0.1577508841243051 2
8 0 0.16200961843668452
7 0 0  1 2 2  6.2728715158920165 -1.2497040873484413 2.7479057236558297  6.2752641552613095 -1.1037274499036736 2.8181354400383372 
 0 2 0.16200961843668452 2
8 0 0.20867338278994751
7 0 0  1 2 2  6.2752641552613095 -1.1037274499036736 2.8181354400383372  6.2783122608896544 -0.91468274899254776 2.9064382757487568 
 0 2 0.20867338278994751 2
8 0 0.31020249914209258
7 0 0  1 2 2  6.2783122608896544 -0.91468274899254776 2.9064382757487568  6.2824800700499539 -0.62413828492467327 3.0150298695316771 
 0 2 0.31020249914209258 2
8 0 0.21823651203224448
7 0 0  1 2 2  6.2824800700499539 -0.62413828492467327 3.0150298695316771  6.285376971953851 -0.4189401860671933 3.0892762389286723 
 0 2 0.21823651203224448 2
8 0 0.30067373363498195
7 0 0  1 2 2  6.285376971953851 -0.4189401860671933 3.0892762389286723  6.2889760144184859 -0.12882804594174058 3.1681855992300179 
 0 2 0.30067373363498195 2
8 0 0.22777393926874068
7 0 0  1 2 2  6.2889760144184859 -0.12882804594174058 3.1681855992300179  6.2916706993376907 0.091441388435955395 3.2261086720258918 
 0 2 0.22777393926874068 2
8 0 0.29117122822833991
7 0 0  1 2 2  6.2916706993376907 0.091441388435955395 3.2261086720258918  6.2946997995759348 0.37822554380141593 3.2763715502867523 
 0 2 0.29117122822833991 2
8 0 0.23728339826460673
7 0 0  1 2 2  6.2946997995759348 0.37822554380141593 3.2763715502867523  6.2971408519460832 0.61219886807911639 3.3157915437135426 
 0 2 0.23728339826460673 2
8 0 0.28169299569744366
7 0 0  1 2 2  6.2971408519460832 0.61219886807911639 3.3157915437135426  6.2996054559143246 0.89294633785951016 3.3387202978050028 
 0 2 0.28169299569744366 2
8 0 0.24676844001006285
7 0 0  1 2 2  6.2996054559143246 0.89294633785951016 3.3387202978050028  6.3017417803916782 1.1389839563423791 3.3575773758927046 
 0 2 0.24676844001006285 2
8 0 0.27223443202137387
7 0 0  1 2 2  6.3017417803916782 1.1389839563423791 3.3575773758927046  6.3036535142346795 1.41119677177692 3.3547288034582929 
 0 2 0.27223443202137387 2
8 0 0.52024847462054125
7 0 0  1 2 2  6.3036535142346795 1.41119677177692 3.3547288034582929  6.3069314000004502 1.9308370993056834 3.3297956765844683 
 0 2 0.52024847462054125 2
8 0 0.52847422376592779
7 0 0  1 2 2  6.3069314000004502 1.9308370993056834 3.3297956765844683  6.3092078273769712 2.4534281297163192 3.2511926359451317 
 0 2 0.52847422376592779 2
8 0 0.5284775960937228
7 0 0  1 2 2  6.3092078273769712 2.4534281297163192 3.2511926359451317  6.3105142896099808 2.9666735947255227 3.1252325018672416 
 0 2 0.5284775960937228 2
8 0 0.52847957748715335
7 0 0  1 2 2  6.3105142896099808 2.9666735947255227 3.1252325018672416  6.3108398402932755 3.4662879329739029 2.9529650619536412 
 0 2 0.52847957748715335 2
8 0 0.52847823467196831
7 0 0  1 2 2  6.3108398402932755 3.4662879329739029 2.9529650619536412  6.3101817819166657 3.9480983474671731 2.7358302283432869 
 0 2 0.52847823467196831 2
8 0 0.52847594273344145
7 0 0  1 2 2  6.3101817819166657 3.9480983474671731 2.7358302283432869  6.3085456103066653 4.4080826831973523 2.4756407668477673 
 0 2 0.52847594273344145 2
Polygon3D 0
PolygonOnTriangulations 0
Surfaces 1
9 0 0 0 0 1 1 2 2 2 2 6.2192954352196965 -1.4126447452816171 -0.0017502460229401606  6.2605338069728784 4.4080834164765896 -0.043783046144619586  
6.2838337024897779 -1.3887117051263105 3.3758304403812649  6.3250720742429607 4.4320164566318967 3.333797640259585  

-1.5152297487536468 2
1.863052251246353 2

-2.8812952319633127 2
2.9397307680366871 2

Triangulations 0

TShapes 48
Ve
1e-07
6.30854561030667 4.40808268319735 2.47564076684777
0 0

0101101
*
Ve
1e-07
6.26142460142537 4.40841375412437 0.0028362739199399
0 0

0101101
*
Ed
 1e-07 1 1 0
1  1 0 0 2.47325343613023
2  1 1 0 0 2.47325343613023
0

0101000
+48 0 -47 0 *
Ve
1e-07
6.26130461137868 4.40637660887768 -0.00268814873157952
0 0

0101101
*
Ed
 1e-07 1 1 0
1  2 0 0 0.00588927873342725
2  2 1 0 0 0.00588927873342725
0

0101000
+47 0 -45 0 *
Ve
1e-07
6.2194322771422 -1.39332973360283 -0.00188972410930299
0 0

0101101
*
Ed
 1e-07 1 1 0
1  3 0 0 5.79985754901489
2  3 1 0 0 5.79985754901489
0

0101000
+45 0 -43 0 *
Ve
1e-07
6.27041554390299 -1.39368762626352 2.6735972505718
0 0

0101101
*
Ed
 1e-07 1 1 0
1  4 0 0 2.6759727153439
2  4 1 0 0 2.6759727153439
0

0101000
+43 0 -41 0 *
Ve
1e-07
6.27053555305355 -1.39165047393245 2.67912267301572
0 0

0101101
*
Ed
 1e-07 1 1 0
1  5 0 0 0.00589021943564073
2  5 1 0 0 0.00589021943564073
0

0101000
+41 0 -39 0 *
Ve
1e-07
6.27287151589202 -1.24970408734844 2.74790572365583
0 0

0101101
*
Ed
 1e-07 1 1 0
1  6 0 0 0.157750884124305
2  6 1 0 0 0.157750884124305
0

0101000
+39 0 -37 0 *
Ve
1e-07
6.27526415526131 -1.10372744990367 2.81813544003834
0 0

0101101
*
Ed
 1e-07 1 1 0
1  7 0 0 0.162009618436685
2  7 1 0 0 0.162009618436685
0

0101000
+37 0 -35 0 *
Ve
1e-07
6.27831226088965 -0.914682748992548 2.90643827574876
0 0

0101101
*
Ed
 1e-07 1 1 0
1  8 0 0 0.208673382789948
2  8 1 0 0 0.208673382789948
0

0101000
+35 0 -33 0 *
Ve
1e-07
6.28248007004995 -0.624138284924673 3.01502986953168
0 0

0101101
*
Ed
 1e-07 1 1 0
1  9 0 0 0.310202499142093
2  9 1 0 0 0.310202499142093
0

0101000
+33 0 -31 0 *
Ve
1e-07
6.28537697195385 -0.418940186067193 3.08927623892867
0 0

0101101
*
Ed
 1e-07 1 1 0
1  10 0 0 0.218236512032244
2  10 1 0 0 0.218236512032244
0

0101000
+31 0 -29 0 *
Ve
1e-07
6.28897601441849 -0.128828045941741 3.16818559923002
0 0

0101101
*
Ed
 1e-07 1 1 0
1  11 0 0 0.300673733634982
2  11 1 0 0 0.300673733634982
0

0101000
+29 0 -27 0 *
Ve
1e-07
6.29167069933769 0.0914413884359554 3.22610867202589
0 0

0101101
*
Ed
 1e-07 1 1 0
1  12 0 0 0.227773939268741
2  12 1 0 0 0.227773939268741
0

0101000
+27 0 -25 0 *
Ve
1e-07
6.29469979957593 0.378225543801416 3.27637155028675
0 0

0101101
*
Ed
 1e-07 1 1 0
1  13 0 0 0.29117122822834
2  13 1 0 0 0.29117122822834
0

0101000
+25 0 -23 0 *
Ve
1e-07
6.29714085194608 0.612198868079116 3.31579154371354
0 0

0101101
*
Ed
 1e-07 1 1 0
1  14 0 0 0.237283398264607
2  14 1 0 0 0.237283398264607
0

0101000
+23 0 -21 0 *
Ve
1e-07
6.29960545591432 0.89294633785951 3.338720297805
0 0

0101101
*
Ed
 1e-07 1 1 0
1  15 0 0 0.281692995697444
2  15 1 0 0 0.281692995697444
0

0101000
+21 0 -19 0 *
Ve
1e-07
6.30174178039168 1.13898395634238 3.3575773758927
0 0

0101101
*
Ed
 1e-07 1 1 0
1  16 0 0 0.246768440010063
2  16 1 0 0 0.246768440010063
0

0101000
+19 0 -17 0 *
Ve
1e-07
6.30365351423468 1.41119677177692 3.35472880345829
0 0

0101101
*
Ed
 1e-07 1 1 0
1  17 0 0 0.272234432021374
2  17 1 0 0 0.272234432021374
0

0101000
+17 0 -15 0 *
Ve
1e-07
6.30693140000045 1.93083709930568 3.32979567658447
0 0

0101101
*
Ed
 1e-07 1 1 0
1  18 0 0 0.520248474620541
2  18 1 0 0 0.520248474620541
0

0101000
+15 0 -13 0 *
Ve
1e-07
6.30920782737697 2.45342812971632 3.25119263594513
0 0

0101101
*
Ed
 1e-07 1 1 0
1  19 0 0 0.528474223765928
2  19 1 0 0 0.528474223765928
0

0101000
+13 0 -11 0 *
Ve
1e-07
6.31051428960998 2.96667359472552 3.12523250186724
0 0

0101101
*
Ed
 1e-07 1 1 0
1  20 0 0 0.528477596093723
2  20 1 0 0 0.528477596093723
0

0101000
+11 0 -9 0 *
Ve
1e-07
6.31083984029328 3.4662879329739 2.95296506195364
0 0

0101101
*
Ed
 1e-07 1 1 0
1  21 0 0 0.528479577487153
2  21 1 0 0 0.528479577487153
0

0101000
+9 0 -7 0 *
Ve
1e-07
6.31018178191667 3.94809834746717 2.73583022834329
0 0

0101101
*
Ed
 1e-07 1 1 0
1  22 0 0 0.528478234671968
2  22 1 0 0 0.528478234671968
0

0101000
+7 0 -5 0 *
Ed
 1e-07 1 1 0
1  23 0 0 0.528475942733441
2  23 1 0 0 0.528475942733441
0

0101000
+5 0 -48 0 *
Wi

0101100
+46 0 +44 0 +42 0 +40 0 +38 0 +36 0 +34 0 +32 0 +30 0 +28 0 
+26 0 +24 0 +22 0 +20 0 +18 0 +16 0 +14 0 +12 0 +10 0 +8 0 
+6 0 +4 0 +3 0 *
Fa
0  1e-07 1 0

1111000
+2 0 *

+1 0 