DBRep_DrawableShape

CASCADE Topology V3, (c) Open Cascade
Locations 0
Curve2ds 6
8 -1.549830029517685 1.5501700941606154
1 0.00016992392114105283 9.0224972602028135 -0.99999999997983324 6.3508802207647635e-06 
8 -1.549830029517685 1.5501700941606154
1 -1.0006367346244531 0.00017003231468182278 -0.00028247556766933561 -0.99999996010377612 
8 -1.5473987347901288 1.5526862318363785
1 -0.0026437482219817941 9.003619647098617 0.99999988609245061 0.00047729978604924868 
8 -1.5473987347901288 1.5526862318363785
1 -3.4996180799018926 -0.0026436402438093491 -0.00028287724690107219 0.99999995999023095 
8 -15.275114685215607 3.4248917151102529
1 -1.500000131000953 5.9251146767540988 -1.2014447597538684e-08 1 
8 -15.275114685215607 3.4248917151102529
1 -5.9248853286079779 5.3914599825052711 0.99999999909502568 -4.2543491077370563e-05 
Curves 3
1 18.172497252037687 13.8496161994861 -1.6498299676853185 6.3508802150173798e-06 -0.00028240416542715487 -0.99999996010377601 
1 18.153619638950573 13.849616208013625 -1.6526436399430475 0.00047729978561730476 0.00028238355707875041 0.99999984622220894 
1 15.075114671392022 13.849324319076853 -3.1499999999999995 0.99999999909502568 -4.2543491077370563e-05 0 
Polygon3D 0
PolygonOnTriangulations 3
2 1 2 
p 0.1 1 -1.44980871787728 1.5001700921658 
2 3 1 
p 0.1 1 -1.49808071284869 1.45263123964476 
2 3 2 
p 0.1 1 3.07779149556477 3.09739211084929 
Surfaces 4
1 9.1500000000000004 13.849999999999994 -1.6499999999999999 4.2543489380907132e-05 0.99999995921904494 -0.00028240389498868735 -1.8570005035263073e-24 0.00028240389524425565 0.99999996012401926 0.99999999909502579 -4.2543487684443768e-05 1.2014447118450802e-08 
1 18.149999999999999 14.850000000000003 -1.6500000000000004 0.99974722683887396 0.022482936373639538 0 -0.022482936373639538 0.99974722683887396 0 0 -0 1 
1 18.150000000000002 10.35 -1.6499999999999999 -0.99999935097562576 0.001034655637040387 0.0004770073794521122 -0.0010346557547511303 -0.99999946474359136 1.0583652117235942e-22 0.00047700712413085538 -4.9353843020888381e-07 0.99999988623197356 
1 21 8.457864336571582 -3.1499999999999995 0 0 1 1 0 -0 -0 1 0 
Triangulations 1
3 1 1 0 0.00284496146228653
18.1628154496244 13.8491788254131 -0.200037926439024 18.1725067794382 13.8491925452032 -3.15 18.1529062310165 13.8507645960662 -3.15072456693976 1.44998732595711 9.00431298767851 -1.50000016821441 9.02250678760339 -1.50072429042797 9.00290461349489 1 2 3 

TShapes 8
Ve
0.0351377325974141
18.1628154496244 13.8491788254131 -0.200037926439024
0 0

0101101
*
Ve
0.00715222161232094
18.1725067794382 13.8491925452032 -3.15
0 0

0101101
*
Ed
 0.00715222161231738 1 1 0
1  1 0 -1.44980871787728 1.5001700921658
2  1 1 0 -1.44980871787728 1.5001700921658
2  2 2 0 -1.44980871787728 1.5001700921658
6  1 1 0
0

0101000
+8 0 -7 0 *
Ve
0.00707471908566878
18.1529062310165 13.8507645960662 -3.15072456693976
0 0

0101101
*
Ed
 0.00707471908466878 1 1 0
1  2 0 -1.49808071284869 1.45263123964476
2  3 1 0 -1.49808071284869 1.45263123964476
2  4 3 0 -1.49808071284869 1.45263123964476
6  2 1 0
0

0101000
+5 0 -8 0 *
Ed
 0.0050001 1 1 0
1  3 0 3.07779149556477 3.09739211084929
2  5 1 0 3.07779149556477 3.09739211084929
2  6 4 0 3.07779149556477 3.09739211084929
6  3 1 0
0

0101000
+5 0 -7 0 *
Wi

0101100
+6 0 +4 0 -3 0 *
Fa
0  1e-07 1 0
2  1
0111000
+2 0 *

+1 0 