DBRep_DrawableShape

CASCADE Topology V3, (c) Open Cascade
Locations 0
Curve2ds 67
8 -1.5496683075153792 1.5503318161001671
1 -0.00033182457691030245 5.850000005294099 1 3.2222370395556634e-24 
8 -1.5496683075153792 1.5503318161001671
1 0.00033175427916631861 -2.3497510268882635 -0.99999996012401926 -0.00028240389524393131 
1 2.9996680557951456 5.8500000413374398 1 1.380059374983449e-20 
1 -2.9996682457208346 -2.3497510268882635 -0.99999996012401926 -0.00028240389524393131 
1 1.5500423067517131 -9.150006357023134 8.6148953970814763e-18 1 
1 -1.4499575736203427 -9.1500063930664748 8.6286960789756507e-18 1 
8 -1.5496682714720369 1.5503318521435094
1 -0.00033182457690967095 2.8500000025791783 1 3.2222370395556634e-24 
8 -1.5496682714720369 1.5503318521435094
1 0.00033179032250707508 -2.3498786573514323 -0.99999996012401926 -0.00028240389524393131 
1 2.9996680557951461 2.850000038622519 1 1.380059374983449e-20 
8 -15.275135276703086 3.4248711236227751
1 -1.5000001310011979 5.9251352682415765 -1.2014447597510982e-08 1 
8 -15.275135276703086 3.4248711236227751
1 -5.9248647371205223 6.3594805627025366 0.99999999909502568 -4.2543491077321334e-05 
1 1.4999997493708583 5.9251353042849164 -1.2014447597524782e-08 1 
1 -1.5499999999999998 2.1999999999999993 0 -1 
1 1.4500000000000011 2.1999999999999993 0 -1 
8 -1.550317157575567 1.5496829553292362
1 0.00031712334486929604 5.8500000005794099 1 -5.0941916917270409e-25 
8 -1.550317157575567 1.5496829553292362
1 0.00031710111161764587 2.3499175789409446 0.99999996357909726 -0.00026989220840018105 
1 -2.9996826126574021 5.8500001249343603 0.99999999999999989 -1.9214262849274279e-08 
1 -2.9996828988883832 2.3499175789409446 0.99999996357909726 -0.00026989220840018105 
8 -0.39492187774914189 4.405078122250857
1 1.5000000000000004 2.0050781222508576 0 -1 
8 -0.39492187774914189 4.405078122250857
1 -6.0000000000000036 2.0050781222508576 0 1 
1 -1.5000000000000007 2.0050781222508576 0 -1 
1 -1.5500423067517117 9.150006357023134 4.0728345233117624e-17 -1 
1 1.4499575736203458 9.1500063930664783 4.0714547859945898e-17 -1 
1 1.5499999999999996 -2.1999999999999993 0 1 
1 -1.4499999999999984 -2.1999999999999993 0 1 
8 -1.5503171689713122 1.5496829439334909
1 0.00031712334486915498 2.8500000002822765 1 -5.0941916917270409e-25 
8 -1.5503171689713122 1.5496829439334909
1 0.00031711250736243812 2.3499598022588604 0.99999996357909726 -0.00026989220840018105 
1 -2.9996826185833507 2.8500001472681222 0.99999999999999989 -1.9214262849274279e-08 
8 -0.39492187774914189 4.405078122250857
1 1.5000000000000004 2.0050781222508576 0 -1 
8 -0.39492187774914189 4.405078122250857
1 -9.0000000000000018 2.0050781222508576 0 1 
8 -3.1250138046069402 14.974990426267523
1 1.5000000771379085 5.9249883108302868 -3.7985817824163683e-09 -1 
8 -3.1250138046069402 14.974990426267523
1 -5.9250116897565537 1.660644473723492 -0.99999999990095512 -1.4074440329096288e-05 
1 -1.4999996734862362 5.9249884058042515 -5.7738979376244605e-09 -1 
1 1.5499999999999996 -2.1999999999999993 0 1 
1 -1.4499999999999984 -2.1999999999999993 0 1 
1 -1.5500614223942377 8.8499794571867145 7.4639721773207447e-19 -1 
1 1.4499383135633885 8.8499793759681271 1.9214262805729566e-08 -0.99999999999999978 
8 -1.5496683075153792 1.5503318161001662
1 -0.00033182457691119117 5.8500000052940972 1 -8.7589934250352993e-26 
8 -1.5496683075153792 1.5503318161001662
1 0.00033175427916454225 -2.3497510268882635 -0.99999996012401926 -0.00028240389524425571 
1 2.9996680557951474 5.8500000413374398 1 -1.3797459102795155e-20 
1 -2.9996682457208337 -2.3497510268882635 -0.99999996012401926 -0.00028240389524425571 
8 -15.275114685215607 3.4248917151102529
1 -1.5000001310009516 5.925114676754097 -1.2014447597538682e-08 1 
8 -15.275114685215607 3.4248917151102529
1 -5.9248853286079779 5.3914599825052729 0.99999999909502568 -4.2543491077370556e-05 
1 1.4999997493711066 5.9251147127974386 -1.2014447597524883e-08 1 
8 -1.549668271472036 1.5503318521435094
1 -0.00033182457691144785 2.850000002579173 1 -8.7589934250352993e-26 
8 -1.549668271472036 1.5503318521435094
1 0.0003317903225061869 -2.3498786573514323 -0.99999996012401926 -0.00028240389524425571 
1 2.9996680557951469 2.8500000386225155 1 -1.3797459102795155e-20 
1 -2.999668209677492 -2.3498786573514323 -0.99999996012401926 -0.00028240389524425571 
8 -0.87893216828579046 3.9210678317142085
1 1.4999999999999991 1.521067831714209 0 -1 
8 -0.87893216828579046 3.9210678317142085
1 -9.0000000000000018 1.521067831714209 0 1 
1 -1.4999999999999991 1.521067831714209 0 -1 
8 -1.5503171689713131 1.5496829439334892
1 0.00031712334487004316 2.8500000002822747 1 -5.0941913904603946e-25 
8 -1.5503171689713131 1.5496829439334892
1 0.00031711250736243812 2.3499598022588604 0.99999996357909726 -0.00026989220840018116 
1 -2.9996827673924216 2.8500000116780178 1 1.144942055933351e-24 
1 -2.9996828874926358 2.3499598022588604 0.99999996357909726 -0.00026989220840018116 
1 1.5500404346630414 -8.8499978930856447 -4.4046835895416445e-17 1 
1 -1.4499594560742497 -8.8499978816899034 -4.4046836722597027e-17 1 
8 -0.87893216828579046 3.9210678317142085
1 1.4999999999999991 1.521067831714209 0 -1 
8 -0.87893216828579046 3.9210678317142085
1 -6 1.521067831714209 0 1 
1 -1.4999999999999991 1.521067831714209 0 -1 
8 -1.5503171575755679 1.5496829553292344
1 0.00031712334487018421 5.8500000005794117 1 -5.0941913904603946e-25 
8 -1.5503171575755679 1.5496829553292344
1 0.00031710111161764587 2.3499175789409446 0.99999996357909726 -0.00026989220840018116 
1 -2.9996827673924216 5.8500000119751547 1 1.144942055933351e-24 
1 -2.9996828988883806 2.3499175789409446 0.99999996357909726 -0.00026989220840018116 
8 -3.1250069924329891 14.974997238441471
1 1.5000000771379338 5.9249951230042379 -3.7985817824163683e-09 -1 
8 -3.1250069924329891 14.974997238441471
1 -5.9250048775826016 0.69262389274607372 -0.99999999990095512 -1.4074440329096286e-05 
1 -1.4999998135993577 5.9249951343999809 -3.7985817824163674e-09 -1 
Curves 23
1 15 13.849751026888264 4.3496682457208351 -0 0.00028240389524393131 0.99999996012401926 
1 -6.3487426142927461e-06 13.850827011167977 2.9000421350099881 0.99999999909502579 -4.2543487684443768e-05 1.20144471270657e-08 
1 12.000000000000002 13.849878657351432 4.3496682096774943 -0 0.00028240389524393131 0.99999996012401926 
1 15.075135262879481 13.849324318200821 2.850000000000001 0.99999999909502568 -4.2543491077321334e-05 0 
1 15 9.3000000000000007 2.9000000000000004 0 1 -0 
1 15 9.1500824210590554 4.3496828988883838 0 0.00026989220840018105 -0.99999996357909726 
1 15 9.4949218777491424 2.850000000000001 0 1 0 
1 18.300006348742617 13.849172988832013 5.7999578649900112 -0.99999999909502579 4.2543487684443775e-05 -1.2014447077722457e-08 
1 11.999999999999998 13.699999999999999 5.7999999999999998 0 -1 0 
1 12.000000000000002 9.1500401977411396 4.349682887492639 0 0.00026989220840018105 -0.99999996357909726 
1 12.000000000000002 9.4949218777491424 2.850000000000001 0 1 0 
1 15.07498831024345 9.1504882292217768 2.850000000000001 -0.99999999990095501 -1.4074440329096286e-05 0 
1 15 13.699999999999999 5.7999999999999998 0 -1 0 
1 17.999979374249641 9.1505757061739601 2.9000617890071645 -0.99999999062855716 -0.0001369046472884741 -5.6163762303253316e-08 
1 15 13.849751026888264 7.3496682457208351 -0 0.00028240389524425571 0.99999996012401926 
1 15.075114671392022 13.849324319076855 5.8500000000000005 0.99999999909502568 -4.2543491077370556e-05 0 
1 11.999999999999998 13.849878657351432 7.3496682096774935 -0 0.00028240389524425571 0.99999996012401926 
1 11.999999999999998 9.978932168285791 5.8500000000000005 0 1 0 
1 11.999999999999998 9.1500401977411396 7.3496828874926372 0 0.00026989220840018116 -0.99999996357909726 
1 0.3000021077909043 9.1502937850778352 5.7999595881733903 0.99999999990095512 1.4074439303888647e-05 3.7985816881154251e-09 
1 15 9.978932168285791 5.8500000000000005 0 1 0 
1 15 9.1500824210590554 7.349682898888382 0 0.00026989220840018116 -0.99999996357909726 
1 15.074995122417398 9.1504882293176557 5.8500000000000005 -0.99999999990095501 -1.4074440329096284e-05 0 
Polygon3D 0
PolygonOnTriangulations 0
Surfaces 13
1 9.1500000000000004 13.849999999999994 1.3499999999999996 4.2543489380907132e-05 0.99999995921904494 -0.00028240389498868735 -1.8570005035263073e-24 0.00028240389524425565 0.99999996012401926 0.99999999909502579 -4.2543487684443768e-05 1.2014447118450802e-08 
1 9.1500000000000004 13.849999999999994 4.3499999999999979 4.2543489380857902e-05 0.99999995921904494 -0.00028240389498836302 -1.8581301614431141e-24 0.00028240389524393131 0.99999996012401926 0.99999999909502579 -4.2543487684394539e-05 1.2014447118423102e-08 
1 15 11.5 4.3500000000000014 -1 -0 -0 0 0 -1 0 -1 0 
1 15 11.5 1.3500000000000003 -1 -0 -0 0 0 -1 0 -1 0 
1 12.000000000000002 11.5 4.3500000000000014 -1 -0 -0 0 0 -1 0 -1 0 
1 21.000000000000004 7.4898437554982848 2.850000000000001 0 0 1 1 0 -0 -0 1 0 
1 9.1500000000000039 9.1500000000000004 4.3500000000000005 1.4074439816492465e-05 -0.99999996348005238 -0.00026989220837344961 3.0010437981769682e-25 0.0002698922084001811 -0.99999996357909737 0.99999999990095523 1.4074439303888662e-05 3.798581644068591e-09 
1 9.1500000000000021 9.1500000000000004 1.3500000000000001 0.00013690465880878449 -0.99999990648014037 -0.00041023996016538547 -1.5700584250436571e-24 0.00041023996400992583 -0.99999991585158243 0.99999999062855716 0.0001369046472884741 5.6163762302506921e-08 
1 9.1500000000000021 13.849999999999996 7.3499999999999988 4.2543489380907125e-05 0.99999995921904494 -0.00028240389498868741 -2.0263927842025159e-25 0.00028240389524425571 0.99999996012401926 0.99999999909502579 -4.2543487684443761e-05 1.2014447118450801e-08 
1 11.999999999999998 11.5 7.3499999999999996 -1 -0 -0 0 0 -1 0 -1 0 
1 15 11.5 7.3499999999999996 -1 -0 -0 0 0 -1 0 -1 0 
1 21 8.457864336571582 5.8500000000000005 0 0 1 1 0 -0 -0 1 0 
1 9.1500000000000021 9.1500000000000004 7.3499999999999996 1.4074439816492463e-05 -0.99999996348005238 -0.00026989220837344972 -5.270762629439235e-25 0.00026989220840018121 -0.99999996357909737 0.99999999990095523 1.4074439303888661e-05 3.7985816440685919e-09 
Triangulations 0

TShapes 71
Ve
0.0079194196320137
15 13.849751120577 2.85
0 0

0101101
*
Ve
0.00791857134071175
14.9999999999997 13.850188858582 2.90002115761339
0 0

0101101
*
Ed
 0.00791857134071175 1 1 0
1  1 0 -1.49966818589363 -1.44964690665597
2  1 2 0 -1.49966818589363 -1.44964690665597
2  2 3 0 -1.49966818589363 -1.44964690665597
2  3 1 0 -1.49966818589363 -1.44964690665597
2  4 4 0 -1.49966818589363 -1.44964690665597
0

0101000
+71 0 -70 0 *
Ve
0.00791857134071353
12 13.8503164890452 2.90004227918343
0 0

0101101
*
Ed
 0.000847311684964893 1 1 0
2  5 1 0 12.0000063596023 15.0000063623167
1  2 0 12.0000063596023 15.0000063623167
2  6 2 0 12.0000063596023 15.0000063623167
0

0101000
+68 0 -70 0 *
Ve
0.00791941963201547
12 13.8498787510503 2.85
0 0

0101101
*
Ed
 0.00791857134071353 1 1 0
1  3 0 -1.49966814985029 -1.44962574904343
2  7 2 0 -1.49966814985029 -1.44962574904343
2  8 5 0 -1.49966814985029 -1.44962574904343
2  9 1 0 -1.49966814985029 -1.44962574904343
0

0101000
+66 0 -68 0 *
Ed
 0.0079194196320137 1 1 0
1  4 0 -3.07513528368407 -0.0751352809691453
2  10 2 0 -3.07513528368407 -0.0751352809691453
2  11 6 0 -3.07513528368407 -0.0751352809691453
2  12 1 0 -3.07513528368407 -0.0751352809691453
0

0101000
+66 0 -71 0 *
Wi

0101100
-69 0 +67 0 +65 0 -64 0 *
Fa
0  1e-07 1 0

0101000
+63 0 *
Ve
0.00737977135146268
14.9999999999983 9.15016499505201 2.90003081025852
0 0

0101101
*
Ed
 1e-07 1 1 0
2  13 4 0 -0.149835004947995 4.55018885858204
1  5 0 -0.149835004947995 4.55018885858204
2  14 3 0 -0.149835004947995 4.55018885858204
0

0101000
+61 0 -70 0 *
Ve
0.00771208472807443
15.0000000018525 9.15033635306892 2.84999999788327
0 0

0101101
*
Ed
 0.00737977135146268 1 1 0
1  6 0 1.44965205811831 1.49968291491958
2  15 7 0 1.44965205811831 1.49968291491958
2  16 3 0 1.44965205811831 1.49968291491958
2  17 8 0 1.44965205811831 1.49968291491958
2  18 4 0 1.44965205811831 1.49968291491958
0

0101000
+61 0 -59 0 *
Ed
 0.00707120923322171 1 1 0
1  7 0 -0.34458552468022 4.35482924282783
2  19 3 0 -0.34458552468022 4.35482924282783
2  20 6 0 -0.34458552468022 4.35482924282783
2  21 4 0 -0.34458552468022 4.35482924282783
0

0101000
+59 0 -71 0 *
Wi

0101100
-69 0 +60 0 -58 0 -57 0 *
Fa
0  1e-07 4 0

0101000
+56 0 *
Ve
0.00791857134071175
15.0000000000003 13.8493133826116 5.79997891267113
0 0

0101101
*
Ed
 0.00707135965497879 1 1 0
1  1 0 -1.44964690665597 1.45031048552529
2  1 2 0 -1.44964690665597 1.45031048552529
2  2 3 0 -1.44964690665597 1.45031048552529
0

0101000
+70 0 -54 0 *
Ve
0.00791857134071175
12.0000000000003 13.8494410130748 5.79997889464946
0 0

0101101
*
Ed
 0.000847311684964894 1 1 0
2  22 9 0 3.30000635172853 6.30000635444345
1  8 0 3.30000635172853 6.30000635444345
2  23 2 0 3.30000635172853 6.30000635444345
0

0101000
+54 0 -52 0 *
Ed
 0.00707135965497879 1 1 0
1  3 0 -1.44962574904343 1.45031050354696
2  7 2 0 -1.44962574904343 1.45031050354696
2  8 5 0 -1.44962574904343 1.45031050354696
0

0101000
+68 0 -52 0 *
Wi

0101100
-53 0 -51 0 +50 0 -67 0 *
Fa
0  1e-07 2 0

0101000
+49 0 *
Ve
0.00788093562060361
12.0000000000001 9.15045845598804 5.79997981630839
0 0

0101101
*
Ed
 1.00000003552714e-07 1 1 0
2  24 10 0 -0.149441013074766 4.54954154401196
1  9 0 -0.149441013074766 4.54954154401196
2  25 5 0 -0.149441013074766 4.54954154401196
0

0101000
+52 0 -47 0 *
Ve
0.00774826596976107
12 9.14975428110629 2.90006145202575
0 0

0101101
*
Ed
 0.00707125899540139 1 1 0
1  10 0 -1.45029676310999 1.4496213055037
2  26 7 0 -1.45029676310999 1.4496213055037
2  27 5 0 -1.45029676310999 1.4496213055037
0

0101000
+47 0 -45 0 *
Ve
0.00808057541843387
12.0000000051445 9.15010988440407 2.84999999412178
0 0

0101101
*
Ed
 0.00774826596976107 1 1 0
1  10 0 1.4496213055037 1.49968285755894
2  26 7 0 1.4496213055037 1.49968285755894
2  27 5 0 1.4496213055037 1.49968285755894
2  28 8 0 1.4496213055037 1.49968285755894
0

0101000
+45 0 -43 0 *
Ed
 0.0050001 1 1 0
1  11 0 -0.344811993345076 4.35495687330117
2  29 5 0 -0.344811993345076 4.35495687330117
2  30 6 0 -0.344811993345076 4.35495687330117
0

0101000
+43 0 -66 0 *
Wi

0101100
-65 0 -50 0 -46 0 -44 0 -42 0 -41 0 *
Fa
0  1e-07 5 0

0101000
+40 0 *
Ed
 0.00771208472807443 1 1 0
1  12 0 0.0749883105210568 3.07498831011935
2  31 7 0 0.0749883105210568 3.07498831011935
2  32 6 0 0.0749883105210568 3.07498831011935
2  33 8 0 0.0749883105210568 3.07498831011935
0

0101000
+59 0 -43 0 *
Wi

0101100
-64 0 +57 0 -38 0 -41 0 *
Fa
0  1e-07 6 0

0101000
+37 0 *
Ve
0.00788093562060183
15.0000000000001 9.15050067930596 5.79997982200627
0 0

0101101
*
Ed
 1e-07 1 1 0
2  34 11 0 -0.149313382611597 4.54949932069404
1  13 0 -0.149313382611597 4.54949932069404
2  35 3 0 -0.149313382611597 4.54949932069404
0

0101000
+54 0 -35 0 *
Ed
 0.00707125899540139 1 1 0
1  6 0 -1.45029675741212 1.44965205811831
2  15 7 0 -1.45029675741212 1.44965205811831
2  16 3 0 -1.45029675741212 1.44965205811831
0

0101000
+35 0 -61 0 *
Wi

0101100
-53 0 -34 0 -33 0 -60 0 *
Fa
0  1e-07 3 0

0101000
+32 0 *
Ed
 0.000677164928025181 1 1 0
2  36 8 0 2.99997940236724 5.9999794304781
1  14 0 2.99997940236724 5.9999794304781
2  37 7 0 2.99997940236724 5.9999794304781
0

0101000
+61 0 -45 0 *
Wi

0101100
-38 0 +42 0 +30 0 -58 0 *
Fa
0  1e-07 8 0

0101000
+29 0 *
Ve
0.00791941963201192
15 13.849751120577 5.85
0 0

0101101
*
Ed
 0.00791857134071175 1 1 0
1  15 0 -1.54966830751538 -1.49966818589364
2  38 9 0 -1.54966830751538 -1.49966818589364
2  39 11 0 -1.54966830751538 -1.49966818589364
2  40 2 0 -1.54966830751538 -1.49966818589364
2  41 3 0 -1.54966830751538 -1.49966818589364
0

0101000
+54 0 -27 0 *
Ve
0.00791941963201192
12 13.8498787510503 5.85
0 0

0101101
*
Ed
 0.00791941963201192 1 1 0
1  16 0 -3.07511469219659 -0.0751146894816675
2  42 9 0 -3.07511469219659 -0.0751146894816675
2  43 12 0 -3.07511469219659 -0.0751146894816675
2  44 2 0 -3.07511469219659 -0.0751146894816675
0

0101000
+25 0 -27 0 *
Ed
 0.00791857134071175 1 1 0
1  17 0 -1.54966827147204 -1.49966814985029
2  45 9 0 -1.54966827147204 -1.49966814985029
2  46 10 0 -1.54966827147204 -1.49966814985029
2  47 2 0 -1.54966827147204 -1.49966814985029
2  48 5 0 -1.54966827147204 -1.49966814985029
0

0101000
+52 0 -25 0 *
Wi

0101100
-26 0 +24 0 +23 0 +51 0 *
Fa
0  1e-07 2 0

0101000
+22 0 *
Ve
0.00788184031316816
12 9.15004011215494 5.85
0 0

0101101
*
Ed
 0.00707120923322527 1 1 0
1  18 0 -0.828892056130847 3.87094658276452
2  49 10 0 -0.828892056130847 3.87094658276452
2  50 12 0 -0.828892056130847 3.87094658276452
2  51 5 0 -0.828892056130847 3.87094658276452
0

0101000
+20 0 -25 0 *
Ed
 0.00788093562060183 1 1 0
1  19 0 1.49968283284973 1.54968294393349
2  52 13 0 1.49968283284973 1.54968294393349
2  53 10 0 1.49968283284973 1.54968294393349
2  54 7 0 1.49968283284973 1.54968294393349
2  55 5 0 1.49968283284973 1.54968294393349
0

0101000
+20 0 -47 0 *
Wi

0101100
-23 0 +19 0 -18 0 +46 0 *
Fa
0  1e-07 5 0

0101000
+17 0 *
Ed
 0.000809776625120771 1 1 0
2  56 13 0 11.6999978933681 14.6999978936652
1  20 0 11.6999978933681 14.6999978936652
2  57 7 0 11.6999978933681 14.6999978936652
0

0101000
+47 0 -35 0 *
Wi

0101100
-33 0 -30 0 +44 0 -15 0 *
Fa
0  1e-07 7 0

0101000
+14 0 *
Ve
0.00788184031316816
15 9.15008233547593 5.85
0 0

0101101
*
Ed
 0.00707120923322171 1 1 0
1  21 0 -0.828849832809862 3.87081895229118
2  58 11 0 -0.828849832809862 3.87081895229118
2  59 12 0 -0.828849832809862 3.87081895229118
2  60 3 0 -0.828849832809862 3.87081895229118
0

0101000
+12 0 -27 0 *
Ed
 0.00788093562060183 1 1 0
1  22 0 1.49968284424548 1.54968295532923
2  61 13 0 1.49968284424548 1.54968295532923
2  62 11 0 1.49968284424548 1.54968295532923
2  63 7 0 1.49968284424548 1.54968295532923
2  64 3 0 1.49968284424548 1.54968295532923
0

0101000
+12 0 -35 0 *
Wi

0101100
-26 0 +11 0 -10 0 +34 0 *
Fa
0  1e-07 3 0

0101000
+9 0 *
Ed
 0.00788184031316816 1 1 0
1  23 0 0.0749951281226991 3.07499512841983
2  65 13 0 0.0749951281226991 3.07499512841983
2  66 12 0 0.0749951281226991 3.07499512841983
2  67 7 0 0.0749951281226991 3.07499512841983
0

0101000
+12 0 -20 0 *
Wi

0101100
-24 0 +11 0 -7 0 -19 0 *
Fa
0  1e-07 12 0

0101000
+6 0 *
Wi

0101100
+15 0 +18 0 +7 0 -10 0 *
Fa
0  1e-07 7 0

0101000
+4 0 *
Sh

0101100
+62 0 -55 0 +48 0 +39 0 -36 0 -31 0 +28 0 +21 0 +16 0 +13 0 
-8 0 +5 0 +3 0 *
So

0100000
+2 0 *

+1 0 