
CASCADE Topology V3, (c) Open Cascade
Locations 0
Curve2ds 4
7 0 0  1 2 2  1.4674999999999998 -2.5262500000000006  1.4674999999999998 2.5262499999999992 
 0 2 5.0525000000000002 2
7 0 0  1 2 2  1.4674999999999998 2.5262499999999992  -1.4675 2.5262499999999992 
 0 2 2.9350000000000001 2
7 0 0  1 2 2  -1.4675 2.5262499999999992  -1.4675 -2.5262500000000006 
 0 2 5.0525000000000002 2
7 0 0  1 2 2  -1.4675 -2.5262500000000006  1.4674999999999998 -2.5262500000000006 
 0 2 2.9350000000000001 2
Curves 4
8 0 5.0525000000000002
7 0 0  1 2 2  1.3676520000000001 0.89858199999999999 2.6349999999999998  6.4201519999999999 0.89858199999999999 2.6349999999999998 
 0 2 5.0525000000000002 2
8 0 2.9350000000000001
7 0 0  1 2 2  6.4201519999999999 0.89858199999999999 2.6349999999999998  6.4201519999999999 0.89858199999999999 -0.30000000000000004 
 0 2 2.9350000000000001 2
8 0 5.0525000000000002
7 0 0  1 2 2  6.4201519999999999 0.89858199999999999 -0.30000000000000004  1.3676520000000001 0.89858199999999999 -0.30000000000000004 
 0 2 5.0525000000000002 2
8 0 2.9350000000000001
7 0 0  1 2 2  1.3676520000000001 0.89858199999999999 -0.30000000000000004  1.3676520000000001 0.89858199999999999 2.6349999999999998 
 0 2 2.9350000000000001 2
Polygon3D 0
PolygonOnTriangulations 0
Surfaces 1
1 3.8939020000000006 0.8985820000000001 1.1675 0 1 0 0 -0 1 1 0 -0 
Triangulations 0

TShapes 10
Ve
1e-07
1.367652 0.898582 2.635
0 0

0101101
*
Ve
1e-07
6.420152 0.898582 2.635
0 0

0101101
*
Ed
 1e-07 1 1 0
1  1 0 0 5.0525
2  1 1 0 0 5.0525
0

0101000
+10 0 -9 0 *
Ve
1e-07
6.420152 0.898582 -0.3
0 0

0101101
*
Ed
 1e-07 1 1 0
1  2 0 0 2.935
2  2 1 0 0 2.935
0

0101000
+9 0 -7 0 *
Ve
1e-07
1.367652 0.898582 -0.3
0 0

0101101
*
Ed
 1e-07 1 1 0
1  3 0 0 5.0525
2  3 1 0 0 5.0525
0

0101000
+7 0 -5 0 *
Ed
 1e-07 1 1 0
1  4 0 0 2.935
2  4 1 0 0 2.935
0

0101000
+5 0 -10 0 *
Wi

0101100
+8 0 +6 0 +4 0 +3 0 *
Fa
0  1e-07 1 0

1111000
+2 0 *

+1 0 