
CASCADE Topology V3, (c) Open Cascade
Locations 0
Curve2ds 4
7 0 0  1 2 2  -1.6756564999999997 -1.1166669999999996  1.6756565000000005 -1.1166669999999996 
 0 2 3.3513130000000002 2
7 0 0  1 2 2  1.6756565000000003 -1.1166669999999996  1.6756565000000003 1.1166670000000001 
 0 2 2.2333340000000002 2
7 0 0  1 2 2  1.6756565000000003 1.1166670000000001  -1.6756565000000001 1.1166670000000001 
 0 2 3.3513130000000002 2
7 0 0  1 2 2  -1.6756564999999997 1.1166670000000001  -1.6756564999999997 -1.1166669999999996 
 0 2 2.2333340000000002 2
Curves 4
8 0 3.3513130000000002
7 0 0  1 2 2  -4.7681819999999995 -1.2094180000000001 3.0513129999999999  -4.7681819999999995 -1.2094180000000001 -0.30000000000000027 
 0 2 3.3513130000000002 2
8 0 2.2333340000000002
7 0 0  1 2 2  -4.7681819999999995 -1.2094180000000001 -0.30000000000000004  -2.5348479999999998 -1.2094180000000001 -0.30000000000000004 
 0 2 2.2333340000000002 2
8 0 3.3513130000000002
7 0 0  1 2 2  -2.5348479999999998 -1.2094180000000001 -0.30000000000000004  -2.5348479999999998 -1.2094180000000001 3.0513130000000004 
 0 2 3.3513130000000002 2
8 0 2.2333340000000002
7 0 0  1 2 2  -2.5348479999999998 -1.2094180000000001 3.0513129999999999  -4.7681819999999995 -1.2094180000000001 3.0513129999999999 
 0 2 2.2333340000000002 2
Polygon3D 0
PolygonOnTriangulations 0
Surfaces 1
1 -3.6515149999999998 -1.2094180000000003 1.3756565000000003 -0 -1 -0 0 0 -1 1 -0 0 
Triangulations 0

TShapes 10
Ve
1.00000000222045e-07
-4.768182 -1.209418 3.051313
0 0

0101101
*
Ve
1.00000000222045e-07
-4.768182 -1.209418 -0.3
0 0

0101101
*
Ed
 1e-07 1 1 0
1  1 0 0 3.351313
2  1 1 0 0 3.351313
0

0101000
+10 0 -9 0 *
Ve
1e-07
-2.534848 -1.209418 -0.3
0 0

0101101
*
Ed
 1e-07 1 1 0
1  2 0 0 2.233334
2  2 1 0 0 2.233334
0

0101000
+9 0 -7 0 *
Ve
1e-07
-2.534848 -1.209418 3.051313
0 0

0101101
*
Ed
 1e-07 1 1 0
1  3 0 0 3.351313
2  3 1 0 0 3.351313
0

0101000
+7 0 -5 0 *
Ed
 1e-07 1 1 0
1  4 0 0 2.233334
2  4 1 0 0 2.233334
0

0101000
+5 0 -10 0 *
Wi

0101100
+8 0 +6 0 +4 0 +3 0 *
Fa
0  1e-07 1 0

1111000
+2 0 *

+1 0 