
CASCADE Topology V3, (c) Open Cascade
Locations 0
Curve2ds 18
7 0 0  1 2 2  1.2329020258864691 -1.9350103269640215  1.232902025886458 1.9510881118956964 
 0 2 3.886098438859718 2
7 0 0  1 2 2  1.232902025886458 1.9510881118956964  0.81648879820972076 1.9961923387420331 
 0 2 0.41884885992869098 2
7 0 0  1 2 2  0.81648879820972076 1.9961923387420331  0.66367637416797409 2.0088572005398211 
 0 2 0.15333634815617481 2
7 0 0  1 2 2  -2.0864496726768178 -0.99111449793097517  -2.0991145344746061 -1.1439269219727219 
 0 2 0.15333634815617481 2
7 0 0  1 2 2  0.66367637416797409 2.0088572005398211  0.51060490930474112 2.01766535149509 
 0 2 0.1533246779831178 2
7 0 0  1 2 2  0.51060490930474112 2.01766535149509  0.35731764110250497 2.0226140386830993 
 0 2 0.15336712847865752 2
7 0 0  1 2 2  0.35731764110250497 2.0226140386830993  0.2039905198220322 2.0236973624206005 
 0 2 0.15333094831271682 2
7 0 0  1 2 2  0.2039905198220322 2.0236973624206005  0.050686064358100413 2.0209154586872069 
 0 2 0.15332969397176308 2
7 0 0  1 2 2  0.050686064358100413 2.0209154586872069  -0.10253615891508217 2.0142688543091092 
 0 2 0.15336631655789335 2
7 0 0  1 2 2  -0.10253615891508217 2.0142688543091092  -0.25552767197387416 2.0037633831229718 
 0 2 0.15335177857743051 2
7 0 0  1 2 2  -0.25552767197387416 2.0037633831229718  -0.40818431212019091 1.9894068602742572 
 0 2 0.15333023031701118 2
7 0 0  1 2 2  -0.40818431212019091 1.9894068602742572  -0.5604800937608474 1.9712022370754909 
 0 2 0.15337996417833602 2
7 0 0  1 2 2  -0.5604800937608474 1.9712022370754909  -0.71223161639498156 1.9491691241967921 
 0 2 0.15334269687501784 2
7 0 0  1 2 2  -0.71223161639498156 1.9491691241967921  -0.86336003726543287 1.9233223357240952 
 0 2 0.15332271869866046 2
7 0 0  1 2 2  1.0896758451845616 2.1048804746488088  0.93854742431411031 2.0790336861761114 
 0 2 0.15332271869866046 2
7 0 0  1 2 2  -0.86336003726543287 1.9233223357240952  -1.2520979741135416 1.8467064568248686 
 0 2 0.39621607292539929 2
7 0 0  1 2 2  -1.2520979741135416 1.8467064568248686  -1.252097974113531 -1.9350103269640286 
 0 2 3.7817167837888972 2
7 0 0  1 2 2  -1.252097974113531 -1.9350103269640286  1.2329020258864694 -1.9350103269640215 
 0 2 2.4850000000000003 2
Curves 16
8 0 3.886098438859718
7 0 0  1 2 2  -7.6978480000000031 0.33858199999999083 -0.29999999999999627  -7.6978480000000031 0.33858200000000194 3.5860984388597217 
 0 2 3.886098438859718 2
8 0 0.41884885992869098
7 0 0  1 2 2  -7.6978480000000031 0.33858200000000194 3.5860984388597217  -7.6978480000000022 0.75499522767673932 3.6312026657060583 
 0 2 0.41884885992869098 2
8 0 0.15333634815617481
7 0 0  1 2 2  -7.6978480000000022 0.75499522767673932 3.6312026657060583  -7.6978480000000014 0.90780765171848599 3.6438675275038466 
 0 2 0.15333634815617481 2
8 0 0.1533246779831178
7 0 0  1 2 2  -7.6978480000000014 0.90780765171848599 3.6438675275038466  -7.6978480000000014 1.0608791165817189 3.652675678459115 
 0 2 0.1533246779831178 2
8 0 0.15336712847865752
7 0 0  1 2 2  -7.6978480000000014 1.0608791165817189 3.652675678459115  -7.6978480000000005 1.214166384783955 3.6576243656471243 
 0 2 0.15336712847865752 2
8 0 0.15333094831271682
7 0 0  1 2 2  -7.6978480000000005 1.214166384783955 3.6576243656471243  -7.6978480000000005 1.3674935060644278 3.6587076893846255 
 0 2 0.15333094831271682 2
8 0 0.15332969397176308
7 0 0  1 2 2  -7.6978480000000005 1.3674935060644278 3.6587076893846255  -7.6978479999999996 1.5207979615283596 3.6559257856512319 
 0 2 0.15332969397176308 2
8 0 0.15336631655789335
7 0 0  1 2 2  -7.6978479999999996 1.5207979615283596 3.6559257856512319  -7.6978479999999996 1.6740201848015421 3.6492791812731347 
 0 2 0.15336631655789335 2
8 0 0.15335177857743051
7 0 0  1 2 2  -7.6978479999999996 1.6740201848015421 3.6492791812731347  -7.6978479999999987 1.8270116978603341 3.6387737100869968 
 0 2 0.15335177857743051 2
8 0 0.15333023031701118
7 0 0  1 2 2  -7.6978479999999987 1.8270116978603341 3.6387737100869968  -7.6978479999999987 1.9796683380066509 3.6244171872382824 
 0 2 0.15333023031701118 2
8 0 0.15337996417833602
7 0 0  1 2 2  -7.6978479999999987 1.9796683380066509 3.6244171872382824  -7.6978479999999978 2.1319641196473076 3.6062125640395162 
 0 2 0.15337996417833602 2
8 0 0.15334269687501784
7 0 0  1 2 2  -7.6978479999999978 2.1319641196473076 3.6062125640395162  -7.6978479999999978 2.2837156422814417 3.5841794511608174 
 0 2 0.15334269687501784 2
8 0 0.15332271869866046
7 0 0  1 2 2  -7.6978479999999978 2.2837156422814417 3.5841794511608174  -7.6978479999999969 2.4348440631518931 3.5583326626881204 
 0 2 0.15332271869866046 2
8 0 0.39621607292539929
7 0 0  1 2 2  -7.6978479999999969 2.4348440631518931 3.5583326626881204  -7.697847999999996 2.8235820000000018 3.4817167837888938 
 0 2 0.39621607292539929 2
8 0 3.7817167837888972
7 0 0  1 2 2  -7.697847999999996 2.8235820000000018 3.4817167837888938  -7.697847999999996 2.8235819999999912 -0.30000000000000338 
 0 2 3.7817167837888972 2
8 0 2.4850000000000003
7 0 0  1 2 2  -7.697847999999996 2.8235819999999912 -0.30000000000000338  -7.6978480000000031 0.33858199999999061 -0.29999999999999627 
 0 2 2.4850000000000003 2
Polygon3D 0
PolygonOnTriangulations 0
Surfaces 3
1 -7.697847999999996 1.57148402588646 1.6350103269640253 -1 2.8656650638662791e-15 -0 -2.8656650638662791e-15 -1 0 0 0 1 
1 -7.6978479999999907 -0.23611927025423582 1.5447529930292403 -1 1.7085415611360523e-15 -6.6487808002848117e-15 6.6487808002848117e-15 3.6666848842620449e-46 -1 -1.7085415611360523e-15 -1 -1.1359718328170023e-29 
1 -7.6978479999999996 3.3733914874660034 1.4792989765120088 -1 2.852491919550782e-15 -0 -2.852491919550782e-15 -1 0 0 0 1 
Triangulations 0

TShapes 34
Ve
1.00000025757174e-07
-7.697848 0.338581999999991 -0.299999999999996
0 0

0101101
*
Ve
0.00943897511520581
-7.697848 0.338582000000002 3.58609843885972
0 0

0101101
*
Ed
 1e-07 1 1 0
1  1 0 0 3.88609843885972
2  1 1 0 0 3.88609843885972
0

0101000
+34 0 -33 0 *
Ve
0.00380450639729399
-7.697848 0.754995227676739 3.63120266570606
0 0

0101101
*
Ed
 1e-07 1 1 0
1  2 0 0 0.418848859928691
2  2 1 0 0 0.418848859928691
0

0101000
+33 0 -31 0 *
Ve
1.00000001776357e-07
-7.697848 0.907807651718486 3.64386752750385
0 0

0101101
*
Ed
 1.00000001776357e-07 1 1 0
1  3 0 0 0.153336348156175
2  3 1 0 0 0.153336348156175
2  4 2 0 0 0.153336348156175
0

0101000
+31 0 -29 0 *
Ve
1e-07
-7.697848 1.06087911658172 3.65267567845912
0 0

0101101
*
Ed
 1e-07 1 1 0
1  4 0 0 0.153324677983118
2  5 1 0 0 0.153324677983118
0

0101000
+29 0 -27 0 *
Ve
1e-07
-7.697848 1.21416638478395 3.65762436564712
0 0

0101101
*
Ed
 1e-07 1 1 0
1  5 0 0 0.153367128478658
2  6 1 0 0 0.153367128478658
0

0101000
+27 0 -25 0 *
Ve
1e-07
-7.697848 1.36749350606443 3.65870768938463
0 0

0101101
*
Ed
 1e-07 1 1 0
1  6 0 0 0.153330948312717
2  7 1 0 0 0.153330948312717
0

0101000
+25 0 -23 0 *
Ve
1e-07
-7.697848 1.52079796152836 3.65592578565123
0 0

0101101
*
Ed
 1e-07 1 1 0
1  7 0 0 0.153329693971763
2  8 1 0 0 0.153329693971763
0

0101000
+23 0 -21 0 *
Ve
1e-07
-7.697848 1.67402018480154 3.64927918127313
0 0

0101101
*
Ed
 1e-07 1 1 0
1  8 0 0 0.153366316557893
2  9 1 0 0 0.153366316557893
0

0101000
+21 0 -19 0 *
Ve
1e-07
-7.697848 1.82701169786033 3.638773710087
0 0

0101101
*
Ed
 1e-07 1 1 0
1  9 0 0 0.153351778577431
2  10 1 0 0 0.153351778577431
0

0101000
+19 0 -17 0 *
Ve
1e-07
-7.697848 1.97966833800665 3.62441718723828
0 0

0101101
*
Ed
 1e-07 1 1 0
1  10 0 0 0.153330230317011
2  11 1 0 0 0.153330230317011
0

0101000
+17 0 -15 0 *
Ve
1e-07
-7.697848 2.13196411964731 3.60621256403952
0 0

0101101
*
Ed
 1e-07 1 1 0
1  11 0 0 0.153379964178336
2  12 1 0 0 0.153379964178336
0

0101000
+15 0 -13 0 *
Ve
1.00000005329071e-07
-7.697848 2.28371564228144 3.58417945116082
0 0

0101101
*
Ed
 1e-07 1 1 0
1  12 0 0 0.153342696875018
2  13 1 0 0 0.153342696875018
0

0101000
+13 0 -11 0 *
Ve
0.00386750859101808
-7.697848 2.43484406315189 3.55833266268812
0 0

0101101
*
Ed
 1.00000005329071e-07 1 1 0
1  13 0 0 0.15332271869866
2  14 1 0 0 0.15332271869866
2  15 3 0 0 0.15332271869866
0

0101000
+11 0 -9 0 *
Ve
0.00837589935272106
-7.697848 2.823582 3.48171678378889
0 0

0101101
*
Ed
 1e-07 1 1 0
1  14 0 0 0.396216072925399
2  16 1 0 0 0.396216072925399
0

0101000
+9 0 -7 0 *
Ve
1.00000008224835e-07
-7.697848 2.82358199999999 -0.300000000000003
0 0

0101101
*
Ed
 1e-07 1 1 0
1  15 0 0 3.7817167837889
2  17 1 0 0 3.7817167837889
0

0101000
+7 0 -5 0 *
Ed
 1e-07 1 1 0
1  16 0 0 2.485
2  18 1 0 0 2.485
0

0101000
+5 0 -34 0 *
Wi

0101100
+32 0 +30 0 +28 0 +26 0 +24 0 +22 0 +20 0 +18 0 +16 0 +14 0 
+12 0 +10 0 +8 0 +6 0 +4 0 +3 0 *
Fa
0  1e-07 1 0

1111000
+2 0 *

+1 0 