
CASCADE Topology V3, (c) Open Cascade
Locations 0
Curve2ds 24
7 0 0  1 2 2  -1.1850187654475397 -3.2380503128945963  1.516749649209937 -3.2384130216489955 
 0 2 2.7017684390040557 2
7 0 0  1 2 2  1.5167496492099366 -3.2384130216489955  1.7687549555111608 -3.1455045230050867 
 0 2 0.26858641723705762 2
7 0 0  1 2 2  1.7687549555111608 -3.1455045230050867  1.7687544361357839 3.163449359855127 
 0 2 6.3089538828602354 2
7 0 0  1 2 2  1.7687544361357839 3.163449359855127  -1.2607344459047678 3.1638530353077621 
 0 2 3.0294889089351655 2
7 0 0  1 2 2  -1.2607344459047678 3.1638530353077621  -1.4299510965625093 3.1014778456576786 
 0 2 0.1803467192485296 2
7 0 0  1 2 2  -1.4299510965625093 3.1014778456576786  -1.5515104478191011 2.8507278679126937 
 0 2 0.27866149216752883 2
7 0 0  1 2 2  -1.5515104478191011 2.8507278679126937  -1.5518780754413626 2.8499682443668828 
 0 2 0.00084390639291344913 2
7 0 0  1 2 2  -1.5518780754413626 2.8499682443668828  -1.622877583188173 2.7024561957825002 
 0 2 0.16370929899627165 2
7 0 0  1 2 2  -1.622877583188173 2.7024561957825002  -1.7169923353937582 2.501059581452894 
 0 2 0.22230200819188928 2
7 0 0  1 2 2  -1.7169923353937582 2.501059581452894  -1.8303508547011231 2.1979195940161302 
 0 2 0.32364178636684038 2
7 0 0  1 2 2  -1.8303508547011231 2.1979195940161302  -1.9093609617753715 1.979672697155745 
 0 2 0.23210839064771399 2
7 0 0  1 2 2  -1.9093609617753715 1.979672697155745  -1.991863604414591 1.6765502791236737 
 0 2 0.31414946499407687 2
7 0 0  1 2 2  -1.991863604414591 1.6765502791236737  -2.0533530856078324 1.4428771719174844 
 0 2 0.24162797298493605 2
7 0 0  1 2 2  -2.0533530856078324 1.4428771719174844  -2.1060038001319983 1.1427510944069412 
 0 2 0.30470930432425258 2
7 0 0  1 2 2  -2.1060038001319983 1.1427510944069412  -2.1477598237621711 0.89515321278952176 
 0 2 0.25109415861552264 2
7 0 0  1 2 2  -2.1477598237621711 0.89515321278952176  -2.1718368030025585 0.60088804765315129 
 0 2 0.29524851962724136 2
7 0 0  1 2 2  -2.1718368030025585 0.60088804765315129  -2.1917890191535889 0.3410685115397023 
 0 2 0.26058450121898086 2
7 0 0  1 2 2  -2.1917890191535889 0.3410685115397023  -2.1887843786198271 0.050161534530402729 
 0 2 0.29092249335076592 2
7 0 0  1 2 2  -2.1887843786198271 0.050161534530402729  -2.1629225136719805 -0.49030090545046878 
 0 2 0.54108084893910091 2
7 0 0  1 2 2  -2.1629225136719805 -0.49030090545046878  -2.0800749038648521 -1.0415304980710922 
 0 2 0.55742065823886744 2
7 0 0  1 2 2  -2.0800749038648521 -1.0415304980710922  -1.9476294556533109 -1.5814202554750918 
 0 2 0.55589814435893337 2
7 0 0  1 2 2  -1.9476294556533109 -1.5814202554750918  -1.7664534620380701 -2.1069994099980067 
 0 2 0.55593002107413869 2
7 0 0  1 2 2  -1.7664534620380701 -2.1069994099980067  -1.538077577699543 -2.6138289718013179 
 0 2 0.55590624143387679 2
7 0 0  1 2 2  -1.538077577699543 -2.6138289718013179  -1.1850187654475397 -3.2380503128945963 
 0 2 0.71714908323520021 2
Curves 24
8 0 2.7017684390040553
7 0 0  1 2 2  6.3140452524232646 4.7080509548762679 2.6505630228468657  6.2625705292160712 4.7084136541745831 -0.050714993077888515 
 0 2 2.7017684390040557 2
8 0 0.26858641723705762
7 0 0  1 2 2  6.2625705292160712 4.7084136541745831 -0.050714993077888071  6.2570982637232753 4.6155075777232852 -0.30266177077714884 
 0 2 0.26858641723705762 2
8 0 6.3089538828602354
7 0 0  1 2 2  6.2570982637232753 4.6155075777232852 -0.30266177077714884  6.2115504854459651 -1.6932818260882683 -0.30179326268131001 
 0 2 6.3089538828602354 2
8 0 3.0294889089351651
7 0 0  1 2 2  6.2115504854459651 -1.6932818260882678 -0.30179326268131001  6.2692690374525144 -1.6936854910167884 2.7271457355770035 
 0 2 3.0294889089351655 2
8 0 0.1803467192485296
7 0 0  1 2 2  6.2692690374525144 -1.6936854910167884 2.7271457355770035  6.2729434772363426 -1.6313119275335852 2.8963230869405647 
 0 2 0.1803467192485296 2
8 0 0.27866149216752883
7 0 0  1 2 2  6.2729434772363426 -1.6313119275335852 2.8963230869405647  6.2770698734341375 -1.3805684870241799 3.0178258733816952 
 0 2 0.27866149216752883 2
8 0 0.00084390639291344913
7 0 0  1 2 2  6.2770698734341375 -1.3805684870241799 3.0178258733816952  6.2770823620555998 -1.379808883282311 3.0181933297596135 
 0 2 0.00084390639291344913 2
8 0 0.16370929899627165
7 0 0  1 2 2  6.2770823620555998 -1.379808883282311 3.0181933297596135  6.2795001002293374 -1.2323006804450789 3.089159654278387 
 0 2 0.16370929899627165 2
8 0 0.22230200819188928
7 0 0  1 2 2  6.2795001002293374 -1.2323006804450789 3.089159654278387  6.2827472799931305 -1.0309093166727195 3.1832296137109157 
 0 2 0.22230200819188928 2
8 0 0.32364178636684038
7 0 0  1 2 2  6.2827472799931305 -1.0309093166727195 3.1832296137109157  6.2870956562056124 -0.72777723231746028 3.2965258490476219 
 0 2 0.32364178636684038 2
8 0 0.23210839064771399
7 0 0  1 2 2  6.2870956562056124 -0.72777723231746028 3.2965258490476219  6.2901766955052247 -0.50953602531352904 3.3754915870063931 
 0 2 0.23210839064771399 2
8 0 0.31414946499407687
7 0 0  1 2 2  6.2901766955052247 -0.50953602531352904 3.3754915870063931  6.2939370415956732 -0.20642150990491492 3.4579375493207825 
 0 2 0.31414946499407687 2
8 0 0.24162797298493605
7 0 0  1 2 2  6.2939370415956732 -0.20642150990491492 3.4579375493207825  6.2967956271038075 0.027245505272217585 3.5193837195505981 
 0 2 0.24162797298493605 2
8 0 0.30470930432425258
7 0 0  1 2 2  6.2967956271038075 0.027245505272217585 3.5193837195505981  6.2999655661300551 0.32736375827609554 3.5719835849709582 
 0 2 0.30470930432425258 2
8 0 0.25109415861552264
7 0 0  1 2 2  6.2999655661300551 0.32736375827609554 3.5719835849709582  6.3025486966286008 0.57495518483539043 3.6136979640505755 
 0 2 0.25109415861552264 2
8 0 0.29524851962724136
7 0 0  1 2 2  6.3025486966286008 0.57495518483539043 3.6136979640505755  6.3051319013472975 0.86921267826337412 3.6377300874885687 
 0 2 0.29524851962724136 2
8 0 0.26058450121898086
7 0 0  1 2 2  6.3051319013472975 0.86921267826337412 3.6377300874885687  6.3073878342851932 1.1290254406912139 3.6576429356459688 
 0 2 0.26058450121898086 2
8 0 0.29092249335076592
7 0 0  1 2 2  6.3073878342851932 1.1290254406912139 3.6576429356459688  6.3094308028108683 1.4199248335425509 3.6545988174233983 
 0 2 0.29092249335076592 2
8 0 0.54108084893910091
7 0 0  1 2 2  6.3094308028108683 1.4199248335425509 3.6545988174233983  6.3128399453602233 1.9603731832717557 3.6286672900731736 
 0 2 0.54108084893910091 2
8 0 0.55742065823886744
7 0 0  1 2 2  6.3128399453602233 1.9603731832717557 3.6286672900731736  6.3152410609132179 2.511588404933156 3.5457588810646383 
 0 2 0.55742065823886744 2
8 0 0.55589814435893337
7 0 0  1 2 2  6.3152410609132179 2.511588404933156 3.5457588810646383  6.3166153103158766 3.0514640870157428 3.4132631972249503 
 0 2 0.55589814435893337 2
8 0 0.55593002107413869
7 0 0  1 2 2  6.3166153103158766 3.0514640870157428 3.4132631972249503  6.3169577706813627 3.5770295393051441 3.2320477828358114 
 0 2 0.55593002107413869 2
8 0 0.55590624143387679
7 0 0  1 2 2  6.3169577706813627 3.5770295393051441 3.2320477828358114  6.3162655583887419 4.0838458876905559 3.0036436254380989 
 0 2 0.55590624143387679 2
8 0 0.71714908323520021
7 0 0  1 2 2  6.3162655583887419 4.0838458876905559 3.0036436254380989  6.3140452524232646 4.7080509548762679 2.6505630228468657 
 0 2 0.71714908323520021 2
Polygon3D 0
PolygonOnTriangulations 0
Surfaces 1
1 6.2680895934841327 1.4700850603250082 1.4662048648414681 -0.99979240525338176 0.0072208576497821879 0.019052706171547591 -0.019053202902502602 -2.2876008431502084e-20 -0.99981847125323509 -0.0072195468565424553 -0.99997392926755924 0.00013758046593138814 
Triangulations 0

TShapes 50
Ve
1e-07
6.31404525242326 4.70805095487627 2.65056302284687
0 0

0101101
*
Ve
1e-07
6.26257052921607 4.70841365417458 -0.0507149930778881
0 0

0101101
*
Ed
 1e-07 1 1 0
1  1 0 0 2.70176843900406
2  1 1 0 0 2.70176843900406
0

0101000
+50 0 -49 0 *
Ve
1e-07
6.25709826372328 4.61550757772329 -0.302661770777149
0 0

0101101
*
Ed
 1e-07 1 1 0
1  2 0 0 0.268586417237058
2  2 1 0 0 0.268586417237058
0

0101000
+49 0 -47 0 *
Ve
1e-07
6.21155048544597 -1.69328182608827 -0.30179326268131
0 0

0101101
*
Ed
 1e-07 1 1 0
1  3 0 0 6.30895388286024
2  3 1 0 0 6.30895388286024
0

0101000
+47 0 -45 0 *
Ve
1e-07
6.26926903745251 -1.69368549101679 2.727145735577
0 0

0101101
*
Ed
 1e-07 1 1 0
1  4 0 0 3.02948890893517
2  4 1 0 0 3.02948890893517
0

0101000
+45 0 -43 0 *
Ve
1e-07
6.27294347723634 -1.63131192753359 2.89632308694056
0 0

0101101
*
Ed
 1e-07 1 1 0
1  5 0 0 0.18034671924853
2  5 1 0 0 0.18034671924853
0

0101000
+43 0 -41 0 *
Ve
1e-07
6.27706987343414 -1.38056848702418 3.0178258733817
0 0

0101101
*
Ed
 1e-07 1 1 0
1  6 0 0 0.278661492167529
2  6 1 0 0 0.278661492167529
0

0101000
+41 0 -39 0 *
Ve
1e-07
6.2770823620556 -1.37980888328231 3.01819332975961
0 0

0101101
*
Ed
 1e-07 1 1 0
1  7 0 0 0.000843906392913449
2  7 1 0 0 0.000843906392913449
0

0101000
+39 0 -37 0 *
Ve
1e-07
6.27950010022934 -1.23230068044508 3.08915965427839
0 0

0101101
*
Ed
 1e-07 1 1 0
1  8 0 0 0.163709298996272
2  8 1 0 0 0.163709298996272
0

0101000
+37 0 -35 0 *
Ve
1e-07
6.28274727999313 -1.03090931667272 3.18322961371092
0 0

0101101
*
Ed
 1e-07 1 1 0
1  9 0 0 0.222302008191889
2  9 1 0 0 0.222302008191889
0

0101000
+35 0 -33 0 *
Ve
1e-07
6.28709565620561 -0.72777723231746 3.29652584904762
0 0

0101101
*
Ed
 1e-07 1 1 0
1  10 0 0 0.32364178636684
2  10 1 0 0 0.32364178636684
0

0101000
+33 0 -31 0 *
Ve
1e-07
6.29017669550522 -0.509536025313529 3.37549158700639
0 0

0101101
*
Ed
 1e-07 1 1 0
1  11 0 0 0.232108390647714
2  11 1 0 0 0.232108390647714
0

0101000
+31 0 -29 0 *
Ve
1e-07
6.29393704159567 -0.206421509904915 3.45793754932078
0 0

0101101
*
Ed
 1e-07 1 1 0
1  12 0 0 0.314149464994077
2  12 1 0 0 0.314149464994077
0

0101000
+29 0 -27 0 *
Ve
1e-07
6.29679562710381 0.0272455052722176 3.5193837195506
0 0

0101101
*
Ed
 1e-07 1 1 0
1  13 0 0 0.241627972984936
2  13 1 0 0 0.241627972984936
0

0101000
+27 0 -25 0 *
Ve
1e-07
6.29996556613006 0.327363758276096 3.57198358497096
0 0

0101101
*
Ed
 1e-07 1 1 0
1  14 0 0 0.304709304324253
2  14 1 0 0 0.304709304324253
0

0101000
+25 0 -23 0 *
Ve
1e-07
6.3025486966286 0.57495518483539 3.61369796405058
0 0

0101101
*
Ed
 1e-07 1 1 0
1  15 0 0 0.251094158615523
2  15 1 0 0 0.251094158615523
0

0101000
+23 0 -21 0 *
Ve
1e-07
6.3051319013473 0.869212678263374 3.63773008748857
0 0

0101101
*
Ed
 1e-07 1 1 0
1  16 0 0 0.295248519627241
2  16 1 0 0 0.295248519627241
0

0101000
+21 0 -19 0 *
Ve
1e-07
6.30738783428519 1.12902544069121 3.65764293564597
0 0

0101101
*
Ed
 1e-07 1 1 0
1  17 0 0 0.260584501218981
2  17 1 0 0 0.260584501218981
0

0101000
+19 0 -17 0 *
Ve
1e-07
6.30943080281087 1.41992483354255 3.6545988174234
0 0

0101101
*
Ed
 1e-07 1 1 0
1  18 0 0 0.290922493350766
2  18 1 0 0 0.290922493350766
0

0101000
+17 0 -15 0 *
Ve
1e-07
6.31283994536022 1.96037318327176 3.62866729007317
0 0

0101101
*
Ed
 1e-07 1 1 0
1  19 0 0 0.541080848939101
2  19 1 0 0 0.541080848939101
0

0101000
+15 0 -13 0 *
Ve
1e-07
6.31524106091322 2.51158840493316 3.54575888106464
0 0

0101101
*
Ed
 1e-07 1 1 0
1  20 0 0 0.557420658238867
2  20 1 0 0 0.557420658238867
0

0101000
+13 0 -11 0 *
Ve
1e-07
6.31661531031588 3.05146408701574 3.41326319722495
0 0

0101101
*
Ed
 1e-07 1 1 0
1  21 0 0 0.555898144358933
2  21 1 0 0 0.555898144358933
0

0101000
+11 0 -9 0 *
Ve
1e-07
6.31695777068136 3.57702953930514 3.23204778283581
0 0

0101101
*
Ed
 1e-07 1 1 0
1  22 0 0 0.555930021074139
2  22 1 0 0 0.555930021074139
0

0101000
+9 0 -7 0 *
Ve
1e-07
6.31626555838874 4.08384588769056 3.0036436254381
0 0

0101101
*
Ed
 1e-07 1 1 0
1  23 0 0 0.555906241433877
2  23 1 0 0 0.555906241433877
0

0101000
+7 0 -5 0 *
Ed
 1e-07 1 1 0
1  24 0 0 0.7171490832352
2  24 1 0 0 0.7171490832352
0

0101000
+5 0 -50 0 *
Wi

0101100
+48 0 +46 0 +44 0 +42 0 +40 0 +38 0 +36 0 +34 0 +32 0 +30 0 
+28 0 +26 0 +24 0 +22 0 +20 0 +18 0 +16 0 +14 0 +12 0 +10 0 
+8 0 +6 0 +4 0 +3 0 *
Fa
0  1e-07 1 0

1111000
+2 0 *

+1 0 