
CASCADE Topology V3, (c) Open Cascade
Locations 0
Curve2ds 4
7 0 0  1 2 2  -2.5262499999999988 -1.2762500000000001  2.526250000000001 -1.2762500000000001 
 0 2 5.0525000000000002 2
7 0 0  1 2 2  2.526250000000001 -1.2762500000000001  2.526250000000001 1.2762500000000001 
 0 2 2.5525000000000002 2
7 0 0  1 2 2  2.526250000000001 1.2762500000000001  -2.5262499999999988 1.2762500000000001 
 0 2 5.0525000000000002 2
7 0 0  1 2 2  -2.5262499999999988 1.2762500000000001  -2.5262499999999988 -1.2762500000000001 
 0 2 2.5525000000000002 2
Curves 4
8 0 5.0525000000000002
7 0 0  1 2 2  1.3676520000000001 -1.4014180000000001 2.2284999999999999  6.4201519999999999 -1.4014180000000001 2.2284999999999999 
 0 2 5.0525000000000002 2
8 0 2.5525000000000002
7 0 0  1 2 2  6.4201519999999999 -1.4014180000000001 2.2284999999999999  6.4201519999999999 1.1510820000000002 2.2284999999999999 
 0 2 2.5525000000000002 2
8 0 5.0525000000000002
7 0 0  1 2 2  6.4201519999999999 1.1510820000000002 2.2284999999999999  1.3676520000000001 1.1510820000000002 2.2284999999999999 
 0 2 5.0525000000000002 2
8 0 2.5525000000000002
7 0 0  1 2 2  1.3676520000000001 1.1510820000000002 2.2284999999999999  1.3676520000000001 -1.4014180000000001 2.2284999999999999 
 0 2 2.5525000000000002 2
Polygon3D 0
PolygonOnTriangulations 0
Surfaces 1
1 3.8939019999999989 -0.12516799999999995 2.2284999999999995 0 0 1 1 0 -0 -0 1 0 
Triangulations 0

TShapes 10
Ve
0.00398102033098796
1.367652 -1.401418 2.2285
0 0

0101101
*
Ve
1e-07
6.420152 -1.401418 2.2285
0 0

0101101
*
Ed
 1e-07 1 1 0
1  1 0 0 5.0525
2  1 1 0 0 5.0525
0

0101000
+10 0 -9 0 *
Ve
1.00000000222045e-07
6.420152 1.151082 2.2285
0 0

0101101
*
Ed
 1e-07 1 1 0
1  2 0 0 2.5525
2  2 1 0 0 2.5525
0

0101000
+9 0 -7 0 *
Ve
1.00000000444089e-07
1.367652 1.151082 2.2285
0 0

0101101
*
Ed
 1e-07 1 1 0
1  3 0 0 5.0525
2  3 1 0 0 5.0525
0

0101000
+7 0 -5 0 *
Ed
 1e-07 1 1 0
1  4 0 0 2.5525
2  4 1 0 0 2.5525
0

0101000
+5 0 -10 0 *
Wi

0101100
+8 0 +6 0 +4 0 +3 0 *
Fa
0  1e-07 1 0

1111000
+2 0 *

+1 0 