
CASCADE Topology V3, (c) Open Cascade
Locations 0
Curve2ds 4
7 0 0  1 2 2  -4.9775093444389871 -3.0137939717136843  4.9299906555610136 -3.1681429142136848 
 0 2 9.9087022281452626 2
7 0 0  1 2 2  4.9299906555610136 -3.1681429142136848  4.9299906555610136 3.0915695570363155 
 0 2 6.2597124712500003 2
7 0 0  1 2 2  4.9299906555610136 3.0915695570363155  -4.9775093444389871 3.0915695570363155 
 0 2 9.9075000000000006 2
7 0 0  1 2 2  -4.9775093444389871 3.0915695570363155  -4.9775093444389871 -3.0137939717136843 
 0 2 6.1053635287499999 2
Curves 4
8 0 9.9087022281452626
7 0 0  1 2 2  1.8726520000000004 -1.3967815287499998 2.2284999999999999  -8.0348480000000002 -1.5511304712500003 2.2284999999999999 
 0 2 9.9087022281452626 2
8 0 6.2597124712500003
7 0 0  1 2 2  -8.0348480000000002 -1.5511304712500003 2.2284999999999999  -8.0348480000000002 4.7085819999999998 2.2284999999999999 
 0 2 6.2597124712500003 2
8 0 9.9075000000000006
7 0 0  1 2 2  -8.0348480000000002 4.7085819999999998 2.2284999999999999  1.8726520000000004 4.7085819999999998 2.2284999999999999 
 0 2 9.9075000000000006 2
8 0 6.1053635287499999
7 0 0  1 2 2  1.8726520000000004 4.7085819999999998 2.2284999999999999  1.8726520000000004 -1.3967815287499998 2.2284999999999999 
 0 2 6.1053635287499999 2
Polygon3D 0
PolygonOnTriangulations 0
Surfaces 1
1 -3.1048573444389866 1.6170124429636845 2.2285000000000004 -0 -0 -1 -1 0 0 0 1 -0 
Triangulations 0

TShapes 10
Ve
0.00463657125000022
1.872652 -1.39678152875 2.2285
0 0

0101101
*
Ve
1e-07
-8.034848 -1.55113047125 2.2285
0 0

0101101
*
Ed
 1e-07 1 1 0
1  1 0 0 9.90870222814526
2  1 1 0 0 9.90870222814526
0

0101000
+10 0 -9 0 *
Ve
1e-07
-8.034848 4.708582 2.2285
0 0

0101101
*
Ed
 1e-07 1 1 0
1  2 0 0 6.25971247125
2  2 1 0 0 6.25971247125
0

0101000
+9 0 -7 0 *
Ve
1.00000000222045e-07
1.872652 4.708582 2.2285
0 0

0101101
*
Ed
 1e-07 1 1 0
1  3 0 0 9.9075
2  3 1 0 0 9.9075
0

0101000
+7 0 -5 0 *
Ed
 1e-07 1 1 0
1  4 0 0 6.10536352875
2  4 1 0 0 6.10536352875
0

0101000
+5 0 -10 0 *
Wi

0101100
+8 0 +6 0 +4 0 +3 0 *
Fa
0  1e-07 1 0

1111000
+2 0 *

+1 0 