
CASCADE Topology V3, (c) Open Cascade
Locations 0
Curve2ds 4
7 0 0  1 2 2  -7.2896516067182695 -3.1586668535160722  7.2778483932817331 -3.1925654260160723 
 0 2 14.567539440935711 2
7 0 0  1 2 2  7.2778483932817313 -3.1925654260160723  7.2778483932817313 3.1756358602339283 
 0 2 6.3682012862500006 2
7 0 0  1 2 2  7.2778483932817313 3.1756358602339283  -7.2896516067182695 3.1756358602339283 
 0 2 14.567500000000001 2
7 0 0  1 2 2  -7.2896516067182695 3.1756358602339283  -7.2896516067182695 -3.1586668535160722 
 0 2 6.3343027137500005 2
Curves 4
8 0 14.567539440935711
7 0 0  1 2 2  6.5326520000000006 -1.51322071375 2.4175  -8.034848000000002 -1.5471192862500001 2.4175 
 0 2 14.567539440935711 2
8 0 6.3682012862500006
7 0 0  1 2 2  -8.0348480000000002 -1.5471192862500001 2.4175  -8.0348480000000002 4.8210820000000005 2.4175 
 0 2 6.3682012862500006 2
8 0 14.567500000000001
7 0 0  1 2 2  -8.0348480000000002 4.8210820000000005 2.4175  6.5326520000000006 4.8210820000000005 2.4175 
 0 2 14.567500000000001 2
8 0 6.3343027137500005
7 0 0  1 2 2  6.5326520000000006 4.8210820000000005 2.4175  6.5326520000000006 -1.5132207137500004 2.4175 
 0 2 6.3343027137500005 2
Polygon3D 0
PolygonOnTriangulations 0
Surfaces 1
1 -0.75699960671826871 1.645446139766072 2.4175 -0 -0 -1 -1 0 0 0 1 -0 
Triangulations 0

TShapes 10
Ve
1e-07
6.532652 -1.51322071375 2.4175
0 0

0101101
*
Ve
1e-07
-8.034848 -1.54711928625 2.4175
0 0

0101101
*
Ed
 1e-07 1 1 0
1  1 0 0 14.5675394409357
2  1 1 0 0 14.5675394409357
0

0101000
+10 0 -9 0 *
Ve
1e-07
-8.034848 4.821082 2.4175
0 0

0101101
*
Ed
 1e-07 1 1 0
1  2 0 0 6.36820128625
2  2 1 0 0 6.36820128625
0

0101000
+9 0 -7 0 *
Ve
1e-07
6.532652 4.821082 2.4175
0 0

0101101
*
Ed
 1e-07 1 1 0
1  3 0 0 14.5675
2  3 1 0 0 14.5675
0

0101000
+7 0 -5 0 *
Ed
 1e-07 1 1 0
1  4 0 0 6.33430271375
2  4 1 0 0 6.33430271375
0

0101000
+5 0 -10 0 *
Wi

0101100
+8 0 +6 0 +4 0 +3 0 *
Fa
0  1e-07 1 0

1111000
+2 0 *

+1 0 