
CASCADE Topology V3, (c) Open Cascade
Locations 0
Curve2ds 4
7 0 0  1 2 2  -2.5262499999999997 -2.03125  2.5262500000000001 -2.03125 
 0 2 5.0525000000000002 2
7 0 0  1 2 2  2.5262500000000001 -2.03125  2.5262500000000001 2.03125 
 0 2 4.0625 2
7 0 0  1 2 2  2.5262500000000001 2.03125  -2.5262499999999997 2.03125 
 0 2 5.0525000000000002 2
7 0 0  1 2 2  -2.5262499999999997 2.03125  -2.5262499999999997 -2.03125 
 0 2 4.0625 2
Curves 4
8 0 5.0525000000000002
7 0 0  1 2 2  1.3676520000000001 0.64608199999999982 2.2284999999999999  6.4201519999999999 0.64608199999999982 2.2284999999999999 
 0 2 5.0525000000000002 2
8 0 4.0625
7 0 0  1 2 2  6.4201519999999999 0.64608199999999982 2.2284999999999999  6.4201519999999999 4.7085819999999998 2.2284999999999999 
 0 2 4.0625 2
8 0 5.0525000000000002
7 0 0  1 2 2  6.4201519999999999 4.7085819999999998 2.2284999999999999  1.3676520000000001 4.7085819999999998 2.2284999999999999 
 0 2 5.0525000000000002 2
8 0 4.0625
7 0 0  1 2 2  1.3676520000000001 4.7085819999999998 2.2284999999999999  1.3676520000000001 0.64608199999999982 2.2284999999999999 
 0 2 4.0625 2
Polygon3D 0
PolygonOnTriangulations 0
Surfaces 1
1 3.8939019999999998 2.6773319999999998 2.2284999999999999 0 0 1 1 0 -0 -0 1 0 
Triangulations 0

TShapes 10
Ve
1.00000000444089e-07
1.367652 0.646082 2.2285
0 0

0101101
*
Ve
1.00000000444089e-07
6.420152 0.646082 2.2285
0 0

0101101
*
Ed
 1e-07 1 1 0
1  1 0 0 5.0525
2  1 1 0 0 5.0525
0

0101000
+10 0 -9 0 *
Ve
1e-07
6.420152 4.708582 2.2285
0 0

0101101
*
Ed
 1e-07 1 1 0
1  2 0 0 4.0625
2  2 1 0 0 4.0625
0

0101000
+9 0 -7 0 *
Ve
1.00000000444089e-07
1.367652 4.708582 2.2285
0 0

0101101
*
Ed
 1e-07 1 1 0
1  3 0 0 5.0525
2  3 1 0 0 5.0525
0

0101000
+7 0 -5 0 *
Ed
 1e-07 1 1 0
1  4 0 0 4.0625
2  4 1 0 0 4.0625
0

0101000
+5 0 -10 0 *
Wi

0101100
+8 0 +6 0 +4 0 +3 0 *
Fa
0  1e-07 1 0

1111000
+2 0 *

+1 0 