
CASCADE Topology V3, (c) Open Cascade
Locations 0
Curve2ds 4
7 0 0  1 2 2  1.4674999999999998 -3.0549999999999997  1.4674999999999998 3.0549999999999997 
 0 2 6.1100000000000003 2
7 0 0  1 2 2  1.4674999999999998 3.0549999999999997  -1.4675 3.0549999999999997 
 0 2 2.9350000000000001 2
7 0 0  1 2 2  -1.4675 3.0549999999999997  -1.4675 -3.0549999999999997 
 0 2 6.1100000000000003 2
7 0 0  1 2 2  -1.4675 -3.0549999999999997  1.4674999999999998 -3.0549999999999997 
 0 2 2.9350000000000001 2
Curves 4
8 0 6.1100000000000003
7 0 0  1 2 2  1.620152 4.7085819999999998 -0.30000000000000004  1.620152 -1.4014180000000001 -0.30000000000000004 
 0 2 6.1100000000000003 2
8 0 2.9350000000000001
7 0 0  1 2 2  1.620152 -1.4014180000000001 -0.30000000000000004  1.620152 -1.4014180000000001 2.6349999999999998 
 0 2 2.9350000000000001 2
8 0 6.1100000000000003
7 0 0  1 2 2  1.620152 -1.4014180000000001 2.6349999999999998  1.620152 4.7085819999999998 2.6349999999999998 
 0 2 6.1100000000000003 2
8 0 2.9350000000000001
7 0 0  1 2 2  1.620152 4.7085819999999998 2.6349999999999998  1.620152 4.7085819999999998 -0.30000000000000004 
 0 2 2.9350000000000001 2
Polygon3D 0
PolygonOnTriangulations 0
Surfaces 1
1 1.6201519999999998 1.6535819999999999 1.1674999999999998 -1 -0 -0 0 0 -1 0 -1 0 
Triangulations 0

TShapes 10
Ve
1e-07
1.620152 4.708582 -0.3
0 0

0101101
*
Ve
1e-07
1.620152 -1.401418 -0.3
0 0

0101101
*
Ed
 1e-07 1 1 0
1  1 0 0 6.11
2  1 1 0 0 6.11
0

0101000
+10 0 -9 0 *
Ve
1e-07
1.620152 -1.401418 2.635
0 0

0101101
*
Ed
 1e-07 1 1 0
1  2 0 0 2.935
2  2 1 0 0 2.935
0

0101000
+9 0 -7 0 *
Ve
1e-07
1.620152 4.708582 2.635
0 0

0101101
*
Ed
 1e-07 1 1 0
1  3 0 0 6.11
2  3 1 0 0 6.11
0

0101000
+7 0 -5 0 *
Ed
 1e-07 1 1 0
1  4 0 0 2.935
2  4 1 0 0 2.935
0

0101000
+5 0 -10 0 *
Wi

0101100
+8 0 +6 0 +4 0 +3 0 *
Fa
0  1e-07 1 0

1111000
+2 0 *

+1 0 