
CASCADE Topology V3, (c) Open Cascade
Locations 0
Curve2ds 17
7 0 0  1 2 2  1.1498094874660114 -1.7792989765120051  1.1498094874660003 2.1301983288864861 
 0 2 3.9094973053984914 2
7 0 0  1 2 2  1.1498094874660003 2.1301983288864861  0.63825159520749208 2.0159019268923206 
 0 2 0.52417091166982899 2
7 0 0  1 2 2  0.63825159520749208 2.0159019268923206  0.48928903708271498 1.9786489286789684 
 0 2 0.1535500882414646 2
7 0 0  1 2 2  0.48928903708271498 1.9786489286789684  0.34134880900832121 1.9376570826815012 
 0 2 0.15351430721917689 2
7 0 0  1 2 2  0.34134880900832121 1.9376570826815012  0.19443854431860697 1.8929310887424651 
 0 2 0.15356770625700106 2
7 0 0  1 2 2  0.19443854431860697 1.8929310887424651  0.048733854248800501 1.8445199367702949 
 0 2 0.15353662867085127 2
7 0 0  1 2 2  0.048733854248800501 1.8445199367702949  -0.095698961164887741 1.7924494833506166 
 0 2 0.1535323102400776 2
7 0 0  1 2 2  -0.095698961164887741 1.7924494833506166  -0.23875504174585149 1.7367566654990865 
 0 2 0.1535145991475434 2
7 0 0  1 2 2  -0.23875504174585149 1.7367566654990865  -0.38038774902230399 1.6774609380438623 
 0 2 0.1535441534702689 2
7 0 0  1 2 2  -0.38038774902230399 1.6774609380438623  -0.52051044516325895 1.6145942713438657 
 0 2 0.15357925561669725 2
7 0 0  1 2 2  -0.52051044516325895 1.6145942713438657  -0.65890937430963392 1.5482568677129305 
 0 2 0.15347610468524778 2
7 0 0  1 2 2  -0.65890937430963392 1.5482568677129305  -0.79567513554601321 1.4784041818041918 
 0 2 0.15357171346062129 2
7 0 0  1 2 2  -0.79567513554601321 1.4784041818041918  -0.93060479416087238 1.4051387844580752 
 0 2 0.15353771921650625 2
7 0 0  1 2 2  -0.93060479416087238 1.4051387844580752  -1.0636347778371733 1.3284947464948134 
 0 2 0.1535294275122229 2
7 0 0  1 2 2  -1.0636347778371733 1.3284947464948134  -1.335190512533996 1.1627786001472502 
 0 2 0.31812632429118209 2
7 0 0  1 2 2  -1.335190512533996 1.1627786001472502  -1.335190512533988 -1.7792989765120122 
 0 2 2.942077576659262 2
7 0 0  1 2 2  -1.335190512533988 -1.7792989765120122  1.1498094874660119 -1.7792989765120051 
 0 2 2.4850000000000003 2
Curves 17
8 0 3.9094973053984914
7 0 0  1 2 2  -7.6978480000000031 2.223581999999992 -0.29999999999999627  -7.6978480000000031 2.2235820000000031 3.6094973053984951 
 0 2 3.9094973053984914 2
8 0 0.52417091166982899
7 0 0  1 2 2  -7.6978480000000031 2.2235820000000031 3.6094973053984951  -7.6978480000000014 2.7351398922585113 3.4952009034043292 
 0 2 0.52417091166982899 2
8 0 0.1535500882414646
7 0 0  1 2 2  -7.6978480000000014 2.7351398922585113 3.4952009034043292  -7.6978480000000014 2.8841024503832884 3.4579479051909772 
 0 2 0.1535500882414646 2
8 0 0.15351430721917689
7 0 0  1 2 2  -7.6978480000000014 2.8841024503832884 3.4579479051909772  -7.6978480000000005 3.0320426784576822 3.41695605919351 
 0 2 0.15351430721917689 2
8 0 0.15356770625700106
7 0 0  1 2 2  -7.6978480000000005 3.0320426784576822 3.41695605919351  -7.6978480000000005 3.1789529431473964 3.3722300652544739 
 0 2 0.15356770625700106 2
8 0 0.15353662867085127
7 0 0  1 2 2  -7.6978480000000005 3.1789529431473964 3.3722300652544739  -7.6978479999999996 3.3246576332172029 3.3238189132823037 
 0 2 0.15353662867085127 2
8 0 0.1535323102400776
7 0 0  1 2 2  -7.6978479999999996 3.3246576332172029 3.3238189132823037  -7.6978479999999996 3.4690904486308911 3.2717484598626254 
 0 2 0.1535323102400776 2
8 0 0.1535145991475434
7 0 0  1 2 2  -7.6978479999999996 3.4690904486308911 3.2717484598626254  -7.6978479999999996 3.6121465292118549 3.2160556420110953 
 0 2 0.1535145991475434 2
8 0 0.1535441534702689
7 0 0  1 2 2  -7.6978479999999996 3.6121465292118549 3.2160556420110953  -7.6978479999999987 3.7537792364883074 3.1567599145558711 
 0 2 0.1535441534702689 2
8 0 0.15357925561669725
7 0 0  1 2 2  -7.6978479999999987 3.7537792364883074 3.1567599145558711  -7.6978479999999987 3.8939019326292623 3.0938932478558745 
 0 2 0.15357925561669725 2
8 0 0.15347610468524778
7 0 0  1 2 2  -7.6978479999999987 3.8939019326292623 3.0938932478558745  -7.6978479999999978 4.0323008617756377 3.0275558442249393 
 0 2 0.15347610468524778 2
8 0 0.15357171346062129
7 0 0  1 2 2  -7.6978479999999978 4.0323008617756377 3.0275558442249393  -7.6978479999999978 4.169066623012017 2.9577031583162006 
 0 2 0.15357171346062129 2
8 0 0.15353771921650625
7 0 0  1 2 2  -7.6978479999999978 4.169066623012017 2.9577031583162006  -7.6978479999999969 4.3039962816268762 2.884437760970084 
 0 2 0.15353771921650625 2
8 0 0.1535294275122229
7 0 0  1 2 2  -7.6978479999999969 4.3039962816268762 2.884437760970084  -7.6978479999999969 4.4370262653031771 2.8077937230068222 
 0 2 0.1535294275122229 2
8 0 0.31812632429118209
7 0 0  1 2 2  -7.6978479999999969 4.4370262653031771 2.8077937230068222  -7.697847999999996 4.7085819999999998 2.642077576659259 
 0 2 0.31812632429118209 2
8 0 2.942077576659262
7 0 0  1 2 2  -7.697847999999996 4.7085819999999998 2.642077576659259  -7.697847999999996 4.7085819999999918 -0.30000000000000338 
 0 2 2.942077576659262 2
8 0 2.4850000000000003
7 0 0  1 2 2  -7.697847999999996 4.7085819999999918 -0.30000000000000338  -7.6978480000000031 2.2235819999999915 -0.29999999999999627 
 0 2 2.4850000000000003 2
Polygon3D 0
PolygonOnTriangulations 0
Surfaces 1
1 -7.6978479999999996 3.3733914874660034 1.4792989765120088 -1 2.852491919550782e-15 -0 -2.852491919550782e-15 -1 0 0 0 1 
Triangulations 0

TShapes 36
Ve
1.00000008881784e-07
-7.697848 2.22358199999999 -0.299999999999996
0 0

0101101
*
Ve
1e-07
-7.697848 2.223582 3.6094973053985
0 0

0101101
*
Ed
 1e-07 1 1 0
1  1 0 0 3.90949730539849
2  1 1 0 0 3.90949730539849
0

0101000
+36 0 -35 0 *
Ve
0.00799083719634623
-7.697848 2.73513989225851 3.49520090340433
0 0

0101101
*
Ed
 1e-07 1 1 0
1  2 0 0 0.524170911669829
2  2 1 0 0 0.524170911669829
0

0101000
+35 0 -33 0 *
Ve
1e-07
-7.697848 2.88410245038329 3.45794790519098
0 0

0101101
*
Ed
 1e-07 1 1 0
1  3 0 0 0.153550088241465
2  3 1 0 0 0.153550088241465
0

0101000
+33 0 -31 0 *
Ve
1e-07
-7.697848 3.03204267845768 3.41695605919351
0 0

0101101
*
Ed
 1e-07 1 1 0
1  4 0 0 0.153514307219177
2  4 1 0 0 0.153514307219177
0

0101000
+31 0 -29 0 *
Ve
1e-07
-7.697848 3.1789529431474 3.37223006525447
0 0

0101101
*
Ed
 1e-07 1 1 0
1  5 0 0 0.153567706257001
2  5 1 0 0 0.153567706257001
0

0101000
+29 0 -27 0 *
Ve
1e-07
-7.697848 3.3246576332172 3.3238189132823
0 0

0101101
*
Ed
 1e-07 1 1 0
1  6 0 0 0.153536628670851
2  6 1 0 0 0.153536628670851
0

0101000
+27 0 -25 0 *
Ve
1e-07
-7.697848 3.46909044863089 3.27174845986263
0 0

0101101
*
Ed
 1e-07 1 1 0
1  7 0 0 0.153532310240078
2  7 1 0 0 0.153532310240078
0

0101000
+25 0 -23 0 *
Ve
1e-07
-7.697848 3.61214652921185 3.2160556420111
0 0

0101101
*
Ed
 1e-07 1 1 0
1  8 0 0 0.153514599147543
2  8 1 0 0 0.153514599147543
0

0101000
+23 0 -21 0 *
Ve
1e-07
-7.697848 3.75377923648831 3.15675991455587
0 0

0101101
*
Ed
 1e-07 1 1 0
1  9 0 0 0.153544153470269
2  9 1 0 0 0.153544153470269
0

0101000
+21 0 -19 0 *
Ve
1e-07
-7.697848 3.89390193262926 3.09389324785587
0 0

0101101
*
Ed
 1e-07 1 1 0
1  10 0 0 0.153579255616697
2  10 1 0 0 0.153579255616697
0

0101000
+19 0 -17 0 *
Ve
1e-07
-7.697848 4.03230086177564 3.02755584422494
0 0

0101101
*
Ed
 1e-07 1 1 0
1  11 0 0 0.153476104685248
2  11 1 0 0 0.153476104685248
0

0101000
+17 0 -15 0 *
Ve
1e-07
-7.697848 4.16906662301202 2.9577031583162
0 0

0101101
*
Ed
 1e-07 1 1 0
1  12 0 0 0.153571713460621
2  12 1 0 0 0.153571713460621
0

0101000
+15 0 -13 0 *
Ve
1e-07
-7.697848 4.30399628162688 2.88443776097008
0 0

0101101
*
Ed
 1e-07 1 1 0
1  13 0 0 0.153537719216506
2  13 1 0 0 0.153537719216506
0

0101000
+13 0 -11 0 *
Ve
1e-07
-7.697848 4.43702626530318 2.80779372300682
0 0

0101101
*
Ed
 1e-07 1 1 0
1  14 0 0 0.153529427512223
2  14 1 0 0 0.153529427512223
0

0101000
+11 0 -9 0 *
Ve
1e-07
-7.697848 4.708582 2.64207757665926
0 0

0101101
*
Ed
 1e-07 1 1 0
1  15 0 0 0.318126324291182
2  15 1 0 0 0.318126324291182
0

0101000
+9 0 -7 0 *
Ve
1e-07
-7.697848 4.70858199999999 -0.300000000000003
0 0

0101101
*
Ed
 1e-07 1 1 0
1  16 0 0 2.94207757665926
2  16 1 0 0 2.94207757665926
0

0101000
+7 0 -5 0 *
Ed
 1e-07 1 1 0
1  17 0 0 2.485
2  17 1 0 0 2.485
0

0101000
+5 0 -36 0 *
Wi

0101100
+34 0 +32 0 +30 0 +28 0 +26 0 +24 0 +22 0 +20 0 +18 0 +16 0 
+14 0 +12 0 +10 0 +8 0 +6 0 +4 0 +3 0 *
Fa
0  1e-07 1 0

1111000
+2 0 *

+1 0 