
CASCADE Topology V3, (c) Open Cascade
Locations 0
Curve2ds 4
7 0 0  1 2 2  -1.5576182425739775 7.3575221542069871  -1.4806980679183761 -7.3876896376638994 
 0 2 14.745412422187361 2
7 0 0  1 2 2  -1.4806980679183761 -7.3876896376639012  1.5209944345796178 -7.3882718310771436 
 0 2 3.0016925589576684 2
7 0 0  1 2 2  1.5209944345796176 -7.3882718310771436  1.5174025597062342 7.3576394438057093 
 0 2 14.745911712345301 2
7 0 0  1 2 2  1.5174025597062342 7.3576394438057093  -1.5576182425739775 7.3575221542069871 
 0 2 3.0750208045170822 2
Curves 4
8 0 14.745412422187361
7 0 0  1 2 2  6.7104653562265018 4.5106553599343746 2.7780331390338517  -8.0346738273982279 4.5578600325639966 2.7016808318396754 
 0 2 14.745412422187361 2
8 0 3.0016925589576684
7 0 0  1 2 2  -8.0346738273982297 4.5578600325639966 2.7016808318396754  -8.03525601794464 4.5943302540928723 -0.29979010796594574 
 0 2 3.0016925589576684 2
8 0 14.745911712345301
7 0 0  1 2 2  -8.03525601794464 4.5943302540928723 -0.29979010796594552  6.7105826452476673 4.5480142723499348 -0.29676071521382696 
 0 2 14.745911712345301 2
8 0 3.0750208045170822
7 0 0  1 2 2  6.7105826452476673 4.5480142723499348 -0.29676071521382696  6.7104653562265018 4.5106553599343746 2.7780331390338517 
 0 2 3.0750208045170822 2
Polygon3D 0
PolygonOnTriangulations 0
Surfaces 1
1 -0.64702056813263897 4.5526670375108385 1.220810376854272 -0.0031382094729639509 -0.99992127097875128 -0.012149217486844556 -2.5619573037552742e-21 0.012149277312212287 -0.99992619480679235 0.99999507580852809 -0.0031379778568074719 -3.8126977150850605e-05 
Triangulations 0

TShapes 10
Ve
1e-07
6.7104653562265 4.51065535993437 2.77803313903385
0 0

0101101
*
Ve
1e-07
-8.03467382739823 4.557860032564 2.70168083183968
0 0

0101101
*
Ed
 1e-07 1 1 0
1  1 0 0 14.7454124221874
2  1 1 0 0 14.7454124221874
0

0101000
+10 0 -9 0 *
Ve
1e-07
-8.03525601794464 4.59433025409287 -0.299790107965946
0 0

0101101
*
Ed
 1e-07 1 1 0
1  2 0 0 3.00169255895767
2  2 1 0 0 3.00169255895767
0

0101000
+9 0 -7 0 *
Ve
1e-07
6.71058264524767 4.54801427234993 -0.296760715213827
0 0

0101101
*
Ed
 1e-07 1 1 0
1  3 0 0 14.7459117123453
2  3 1 0 0 14.7459117123453
0

0101000
+7 0 -5 0 *
Ed
 1e-07 1 1 0
1  4 0 0 3.07502080451708
2  4 1 0 0 3.07502080451708
0

0101000
+5 0 -10 0 *
Wi

0101100
+8 0 +6 0 +4 0 +3 0 *
Fa
0  1e-07 1 0

1111000
+2 0 *

+1 0 