
CASCADE Topology V3, (c) Open Cascade
Locations 0
Curve2ds 4
7 0 0  1 2 2  -1.675370007298296 4.8066210690357503  -1.6753676596244536 -4.7483750683127708 
 0 2 9.5549961373488088 2
7 0 0  1 2 2  -1.6753676596244536 -4.7483750683127699  1.753364571578375 -4.7484151195620576 
 0 2 3.4287322314367481 2
7 0 0  1 2 2  1.7533645715783746 -4.7484151195620576  1.5960668239961724 4.8066257711779388 
 0 2 9.556335542722838 2
7 0 0  1 2 2  1.5960668239961724 4.8066257711779388  -1.6753700072982962 4.8066210690357503 
 0 2 3.271436831297847 2
Curves 4
8 0 9.5549961373488088
7 0 0  1 2 2  6.4201681038418918 -1.2628630107800647 -0.30120023139370855  -3.1348279623286115 -1.2616967615916144 -0.30120915997229636 
 0 2 9.5549961373488088 2
8 0 3.4287322314367481
7 0 0  1 2 2  -3.1348279623286106 -1.2616967615916144 -0.30120915997229636  -3.1348680135775999 -1.2285461919413883 3.1273628099622695 
 0 2 3.4287322314367481 2
8 0 9.556335542722838
7 0 0  1 2 2  -3.1348680135775999 -1.2285461919413883 3.127362809962269  6.4201728059840448 -1.2312332510731836 2.9700836907767401 
 0 2 9.556335542722838 2
8 0 3.2714368312978466
7 0 0  1 2 2  6.4201728059840448 -1.2312332510731836 2.9700836907767401  6.4201681038418918 -1.2628630107800647 -0.30120023139370877 
 0 2 3.271436831297847 2
Polygon3D 0
PolygonOnTriangulations 0
Surfaces 1
1 1.6135470706120962 -1.2460780929349975 1.3740857955577912 0.00012205980892513356 0.99995325188709872 -0.0096684611919166472 1.338250222779479e-22 0.0096684612639399026 0.99995325933604917 0.99999999255070149 -0.00012205410376862266 1.1801305344765595e-06 
Triangulations 0

TShapes 10
Ve
1e-07
6.42016810384189 -1.26286301078006 -0.301200231393709
0 0

0101101
*
Ve
1e-07
-3.13482796232861 -1.26169676159161 -0.301209159972296
0 0

0101101
*
Ed
 1e-07 1 1 0
1  1 0 0 9.55499613734881
2  1 1 0 0 9.55499613734881
0

0101000
+10 0 -9 0 *
Ve
1e-07
-3.1348680135776 -1.22854619194139 3.12736280996227
0 0

0101101
*
Ed
 1e-07 1 1 0
1  2 0 0 3.42873223143675
2  2 1 0 0 3.42873223143675
0

0101000
+9 0 -7 0 *
Ve
1e-07
6.42017280598404 -1.23123325107318 2.97008369077674
0 0

0101101
*
Ed
 1e-07 1 1 0
1  3 0 0 9.55633554272284
2  3 1 0 0 9.55633554272284
0

0101000
+7 0 -5 0 *
Ed
 1e-07 1 1 0
1  4 0 0 3.27143683129785
2  4 1 0 0 3.27143683129785
0

0101000
+5 0 -10 0 *
Wi

0101100
+8 0 +6 0 +4 0 +3 0 *
Fa
0  1e-07 1 0

1111000
+2 0 *

+1 0 