
CASCADE Topology V3, (c) Open Cascade
Locations 0
Curve2ds 4
7 0 0  1 2 2  -8.7337500000000006 -4.63375  8.7337500000000006 -4.63375 
 0 2 17.467500000000001 2
7 0 0  1 2 2  8.7337500000000006 -4.63375  8.7337500000000006 4.63375 
 0 2 9.2675000000000001 2
7 0 0  1 2 2  8.7337500000000006 4.63375  -8.7337500000000006 4.63375 
 0 2 17.467500000000001 2
7 0 0  1 2 2  -8.7337500000000006 4.63375  -8.7337500000000006 -4.63375 
 0 2 9.2675000000000001 2
Curves 4
8 0 17.467500000000001
7 0 0  1 2 2  -9.5348480000000002 -3.0464180000000001 -0.23499999999999999  7.9326520000000009 -3.0464180000000001 -0.23499999999999999 
 0 2 17.467500000000001 2
8 0 9.2675000000000001
7 0 0  1 2 2  7.9326520000000009 -3.0464180000000001 -0.23499999999999999  7.9326520000000009 6.221082 -0.23499999999999999 
 0 2 9.2675000000000001 2
8 0 17.467500000000001
7 0 0  1 2 2  7.9326520000000009 6.221082 -0.23499999999999999  -9.5348480000000002 6.221082 -0.23499999999999999 
 0 2 17.467500000000001 2
8 0 9.2675000000000001
7 0 0  1 2 2  -9.5348480000000002 6.221082 -0.23499999999999999  -9.5348480000000002 -3.0464180000000001 -0.23499999999999999 
 0 2 9.2675000000000001 2
Polygon3D 0
PolygonOnTriangulations 0
Surfaces 1
1 -0.80109799999999964 1.587332 -0.23500000000000001 0 0 1 1 0 -0 -0 1 0 
Triangulations 0

TShapes 10
Ve
1e-07
-9.534848 -3.046418 -0.235
0 0

0101101
*
Ve
1e-07
7.932652 -3.046418 -0.235
0 0

0101101
*
Ed
 1e-07 1 1 0
1  1 0 0 17.4675
2  1 1 0 0 17.4675
0

0101000
+10 0 -9 0 *
Ve
1e-07
7.932652 6.221082 -0.235
0 0

0101101
*
Ed
 1e-07 1 1 0
1  2 0 0 9.2675
2  2 1 0 0 9.2675
0

0101000
+9 0 -7 0 *
Ve
1e-07
-9.534848 6.221082 -0.235
0 0

0101101
*
Ed
 1e-07 1 1 0
1  3 0 0 17.4675
2  3 1 0 0 17.4675
0

0101000
+7 0 -5 0 *
Ed
 1e-07 1 1 0
1  4 0 0 9.2675
2  4 1 0 0 9.2675
0

0101000
+5 0 -10 0 *
Wi

0101100
+8 0 +6 0 +4 0 +3 0 *
Fa
0  1e-07 1 0

1111000
+2 0 *

+1 0 