
CASCADE Topology V3, (c) Open Cascade
Locations 0
Curve2ds 17
7 0 0  1 2 2  -1.8984168118683749 0.035408228371721667  -1.9358643764186803 -0.10834757948760498 
 0 2 0.14855319715185167 2
7 0 0  1 2 2  -1.9358643764186803 -0.10834757948760498  -1.9698055497830729 -0.25304182230444272 
 0 2 0.14862175868186245 2
7 0 0  1 2 2  -1.9698055497830729 -0.25304182230444272  -2.000189109441266 -0.39844900104829228 
 0 2 0.1485476634880159 2
7 0 0  1 2 2  -2.000189109441266 -0.39844900104829228  -2.0270230070633355 -0.54462193557853522 
 0 2 0.14861556059435502 2
7 0 0  1 2 2  -2.0270230070633355 -0.54462193557853522  -2.0502707460138652 -0.69134929603715944 
 0 2 0.14855765100952223 2
7 0 0  1 2 2  -2.0502707460138652 -0.69134929603715944  -2.11479569948321 -1.174701270254237 
 0 2 0.48763982671616107 2
7 0 0  1 2 2  -2.11479569948321 -1.174701270254237  1.844752993029243 -1.1747012702542305 
 0 2 3.959548692512453 2
7 0 0  1 2 2  1.844752993029243 -1.1747012702542305  1.8447529930292386 1.3102987297457698 
 0 2 2.4850000000000003 2
7 0 0  1 2 2  1.8447529930292386 1.3102987297457696  -1.3947646390951141 1.3102987297457638 
 0 2 3.2395176321243526 2
7 0 0  1 2 2  -1.3947646390951136 1.3102987297457638  -1.5397122845890743 1.0104078491245778 
 0 2 0.33308311307238803 2
7 0 0  1 2 2  -1.5397122845890743 1.0104078491245778  -1.6011093371056373 0.87503778582448422 
 0 2 0.14864269943590552 2
7 0 0  1 2 2  -1.6011093371056373 0.87503778582448422  -1.6591565659309544 0.73826963348602526 
 0 2 0.14857660740632989 2
7 0 0  1 2 2  -1.6591565659309544 0.73826963348602526  -1.713841239774911 0.60013866285118755 
 0 2 0.14856169964678756 2
7 0 0  1 2 2  -1.713841239774911 0.60013866285118755  -1.7651417846108353 0.46069675381250175 
 0 2 0.14857924450210325 2
7 0 0  1 2 2  -1.7651417846108353 0.46069675381250175  -1.8130306844939548 0.32001784262685096 
 0 2 0.14860653681583347 2
7 0 0  1 2 2  -1.8130306844939548 0.32001784262685096  -1.8574563947644411 0.17825104743412182 
 0 2 0.1485646928184971 2
7 0 0  1 2 2  -1.8574563947644411 0.17825104743412182  -1.8984168118683749 0.035408228371721667 
 0 2 0.14859955157072927 2
Curves 17
8 0 0.14855319715185167
7 0 0  1 2 2  -7.697848000000004 -0.27152749862595749 3.4431698048976154  -7.697848000000004 -0.12777169076663084 3.4806173694479208 
 0 2 0.14855319715185167 2
8 0 0.14862175868186245
7 0 0  1 2 2  -7.697848000000004 -0.12777169076663084 3.4806173694479208  -7.697848000000004 0.016922552050206874 3.5145585428123134 
 0 2 0.14862175868186245 2
8 0 0.1485476634880159
7 0 0  1 2 2  -7.697848000000004 0.016922552050206874 3.5145585428123134  -7.697848000000004 0.16232973079405649 3.5449421024705066 
 0 2 0.1485476634880159 2
8 0 0.14861556059435502
7 0 0  1 2 2  -7.697848000000004 0.16232973079405649 3.5449421024705066  -7.697848000000004 0.30850266532429943 3.571776000092576 
 0 2 0.14861556059435502 2
8 0 0.14855765100952223
7 0 0  1 2 2  -7.697848000000004 0.30850266532429943 3.571776000092576  -7.697848000000004 0.45523002578292365 3.5950237390431057 
 0 2 0.14855765100952223 2
8 0 0.48763982671616107
7 0 0  1 2 2  -7.697848000000004 0.45523002578292365 3.5950237390431057  -7.697848000000004 0.93858200000000114 3.6595486925124505 
 0 2 0.48763982671616107 2
8 0 3.959548692512453
7 0 0  1 2 2  -7.697848000000004 0.93858200000000114 3.6595486925124505  -7.6978479999999774 0.9385819999999947 -0.30000000000000249 
 0 2 3.959548692512453 2
8 0 2.4850000000000003
7 0 0  1 2 2  -7.6978479999999774 0.9385819999999947 -0.30000000000000249  -7.6978479999999818 -1.5464180000000056 -0.29999999999999805 
 0 2 2.4850000000000003 2
8 0 3.2395176321243526
7 0 0  1 2 2  -7.6978479999999818 -1.5464180000000054 -0.29999999999999805  -7.6978480000000031 -1.5464179999999996 2.9395176321243546 
 0 2 3.2395176321243526 2
8 0 0.33308311307238803
7 0 0  1 2 2  -7.6978480000000031 -1.5464179999999996 2.9395176321243541  -7.697848000000004 -1.2465271193788137 3.0844652776183148 
 0 2 0.33308311307238803 2
8 0 0.14864269943590552
7 0 0  1 2 2  -7.697848000000004 -1.2465271193788137 3.0844652776183148  -7.697848000000004 -1.1111570560787201 3.1458623301348778 
 0 2 0.14864269943590552 2
8 0 0.14857660740632989
7 0 0  1 2 2  -7.697848000000004 -1.1111570560787201 3.1458623301348778  -7.697848000000004 -0.9743889037402611 3.2039095589601949 
 0 2 0.14857660740632989 2
8 0 0.14856169964678756
7 0 0  1 2 2  -7.697848000000004 -0.9743889037402611 3.2039095589601949  -7.697848000000004 -0.8362579331054234 3.2585942328041515 
 0 2 0.14856169964678756 2
8 0 0.14857924450210325
7 0 0  1 2 2  -7.697848000000004 -0.8362579331054234 3.2585942328041515  -7.697848000000004 -0.69681602406673759 3.3098947776400758 
 0 2 0.14857924450210325 2
8 0 0.14860653681583347
7 0 0  1 2 2  -7.697848000000004 -0.69681602406673759 3.3098947776400758  -7.697848000000004 -0.5561371128810868 3.3577836775231953 
 0 2 0.14860653681583347 2
8 0 0.1485646928184971
7 0 0  1 2 2  -7.697848000000004 -0.5561371128810868 3.3577836775231953  -7.697848000000004 -0.41437031768835764 3.4022093877936816 
 0 2 0.1485646928184971 2
8 0 0.14859955157072927
7 0 0  1 2 2  -7.697848000000004 -0.41437031768835764 3.4022093877936816  -7.697848000000004 -0.27152749862595749 3.4431698048976154 
 0 2 0.14859955157072927 2
Polygon3D 0
PolygonOnTriangulations 0
Surfaces 1
1 -7.6978479999999907 -0.23611927025423582 1.5447529930292403 -1 1.7085415611360523e-15 -6.6487808002848117e-15 6.6487808002848117e-15 3.6666848842620449e-46 -1 -1.7085415611360523e-15 -1 -1.1359718328170023e-29 
Triangulations 0

TShapes 36
Ve
1e-07
-7.697848 -0.271527498625957 3.44316980489762
0 0

0101101
*
Ve
1e-07
-7.697848 -0.127771690766631 3.48061736944792
0 0

0101101
*
Ed
 1e-07 1 1 0
1  1 0 0 0.148553197151852
2  1 1 0 0 0.148553197151852
0

0101000
+36 0 -35 0 *
Ve
1e-07
-7.697848 0.0169225520502069 3.51455854281231
0 0

0101101
*
Ed
 1e-07 1 1 0
1  2 0 0 0.148621758681862
2  2 1 0 0 0.148621758681862
0

0101000
+35 0 -33 0 *
Ve
1e-07
-7.697848 0.162329730794056 3.54494210247051
0 0

0101101
*
Ed
 1e-07 1 1 0
1  3 0 0 0.148547663488016
2  3 1 0 0 0.148547663488016
0

0101000
+33 0 -31 0 *
Ve
1e-07
-7.697848 0.308502665324299 3.57177600009258
0 0

0101101
*
Ed
 1e-07 1 1 0
1  4 0 0 0.148615560594355
2  4 1 0 0 0.148615560594355
0

0101000
+31 0 -29 0 *
Ve
0.00895936130226799
-7.697848 0.455230025782924 3.59502373904311
0 0

0101101
*
Ed
 1e-07 1 1 0
1  5 0 0 0.148557651009522
2  5 1 0 0 0.148557651009522
0

0101000
+29 0 -27 0 *
Ve
1e-07
-7.697848 0.938582000000001 3.65954869251245
0 0

0101101
*
Ed
 1e-07 1 1 0
1  6 0 0 0.487639826716161
2  6 1 0 0 0.487639826716161
0

0101000
+27 0 -25 0 *
Ve
1.00000025376855e-07
-7.69784799999998 0.938581999999995 -0.300000000000002
0 0

0101101
*
Ed
 1e-07 1 1 0
1  7 0 0 3.95954869251245
2  7 1 0 0 3.95954869251245
0

0101000
+25 0 -23 0 *
Ve
1e-07
-7.69784799999998 -1.54641800000001 -0.299999999999998
0 0

0101101
*
Ed
 1e-07 1 1 0
1  8 0 0 2.485
2  8 1 0 0 2.485
0

0101000
+23 0 -21 0 *
Ve
1e-07
-7.697848 -1.546418 2.93951763212435
0 0

0101101
*
Ed
 1e-07 1 1 0
1  9 0 0 3.23951763212435
2  9 1 0 0 3.23951763212435
0

0101000
+21 0 -19 0 *
Ve
1e-07
-7.697848 -1.24652711937881 3.08446527761831
0 0

0101101
*
Ed
 1e-07 1 1 0
1  10 0 0 0.333083113072388
2  10 1 0 0 0.333083113072388
0

0101000
+19 0 -17 0 *
Ve
1e-07
-7.697848 -1.11115705607872 3.14586233013488
0 0

0101101
*
Ed
 1e-07 1 1 0
1  11 0 0 0.148642699435906
2  11 1 0 0 0.148642699435906
0

0101000
+17 0 -15 0 *
Ve
1e-07
-7.697848 -0.974388903740261 3.20390955896019
0 0

0101101
*
Ed
 1e-07 1 1 0
1  12 0 0 0.14857660740633
2  12 1 0 0 0.14857660740633
0

0101000
+15 0 -13 0 *
Ve
1e-07
-7.697848 -0.836257933105423 3.25859423280415
0 0

0101101
*
Ed
 1e-07 1 1 0
1  13 0 0 0.148561699646788
2  13 1 0 0 0.148561699646788
0

0101000
+13 0 -11 0 *
Ve
1e-07
-7.697848 -0.696816024066738 3.30989477764008
0 0

0101101
*
Ed
 1e-07 1 1 0
1  14 0 0 0.148579244502103
2  14 1 0 0 0.148579244502103
0

0101000
+11 0 -9 0 *
Ve
1e-07
-7.697848 -0.556137112881087 3.3577836775232
0 0

0101101
*
Ed
 1e-07 1 1 0
1  15 0 0 0.148606536815833
2  15 1 0 0 0.148606536815833
0

0101000
+9 0 -7 0 *
Ve
1e-07
-7.697848 -0.414370317688358 3.40220938779368
0 0

0101101
*
Ed
 1e-07 1 1 0
1  16 0 0 0.148564692818497
2  16 1 0 0 0.148564692818497
0

0101000
+7 0 -5 0 *
Ed
 1e-07 1 1 0
1  17 0 0 0.148599551570729
2  17 1 0 0 0.148599551570729
0

0101000
+5 0 -36 0 *
Wi

0101100
+34 0 +32 0 +30 0 +28 0 +26 0 +24 0 +22 0 +20 0 +18 0 +16 0 
+14 0 +12 0 +10 0 +8 0 +6 0 +4 0 +3 0 *
Fa
0  1e-07 1 0

1111000
+2 0 *

+1 0 