
CASCADE Topology V3, (c) Open Cascade
Locations 0
Curve2ds 0
Curves 4
1 -2.1999999999999999e-05 0.20710799999999999 0.88539500000000004 0.99999999609926093 8.8299805395993742e-05 2.1499952616190466e-06 
1 20.000022000000001 0.208874 0.88543799999999995 0 8.6249999679189967e-05 0.99999999628046887 
1 20.000022000000001 0.209564 8.8854380000000006 -0.99999999610101242 -8.8299902525826104e-05 -1.0499988409208781e-06 
1 0 0.20779800000000001 8.8854170000000003 -2.749992427281772e-06 -8.6249762492022206e-05 -0.99999999627670788 
Polygon3D 0
PolygonOnTriangulations 0
Surfaces 1
1 10.00000157142073 0.20833599951757151 4.8854204285629486 8.8299715633100674e-05 -0.9999999923820696 8.6249759337002395e-05 -0.99999999610158008 -8.82997159615324e-05 5.6695666424060063e-25 7.6158292512078387e-09 -8.6249759000764617e-05 -0.99999999628048952 
Triangulations 0

TShapes 10
Ve
1e-07
-2.2e-05 0.207108 0.885395
0 0

0101101
*
Ve
1e-07
20.000022 0.208874 0.885438
0 0

0101101
*
Ed
 1e-07 1 1 0
1  1 0 0 20.000044078015
0

0101000
+10 0 -9 0 *
Ve
1e-07
20.000022 0.209564 8.885438
0 0

0101101
*
Ed
 1e-07 1 1 0
1  2 0 0 8.00000002975625
0

0101000
+9 0 -7 0 *
Ve
1e-07
0 0.207798 8.885417
0 0

0101101
*
Ed
 1e-07 1 1 0
1  3 0 0 20.0000220779798
0

0101000
+7 0 -5 0 *
Ed
 1e-07 1 1 0
1  4 0 0 8.00002202978642
0

0101000
+5 0 -10 0 *
Wi

0101100
+8 0 +6 0 +4 0 +3 0 *
Fa
0  1e-07 1 0

1111000
+2 0 *

+1 0 