
CASCADE Topology V3, (c) Open Cascade
Locations 0
Curve2ds 0
Curves 6
1 20.000589000000002 18.000509000000001 9.2639999999999993 2.1111130730526714e-06 -0.99999909600616266 0.0013446123607136129 
1 20.000627000000001 0.00054199999999999995 9.2882029999999993 -0.75667287471418554 -0.65378929016802989 0.0023926415014068263 
1 19.999362000000001 -0.00055099999999999995 9.2882069999999999 -0.99999878895921579 2.1000026018207239e-06 0.001556301928196973 
1 -0.00058900000000000001 -0.00050900000000000001 9.3193330000000003 -2.1111130730536408e-06 0.99999909600616266 -0.0013446123607136129 
1 -0.00062699999999999995 17.999458000000001 9.2951300000000003 0.75667382228609148 0.65379010890069411 -0.0017944833727300488 
1 0.000638 18.000551000000002 9.2951270000000008 0.99999878888139948 -2.1000026016843927e-06 -0.0015563519281378627 
Polygon3D 0
PolygonOnTriangulations 0
Surfaces 1
1 10.000000000275467 8.9999999999363922 9.2916666315837926 -0.0015563298032990338 -0.0013446158182628548 -0.99999788492068564 -0.9999987889158487 1.5761119544832182e-22 0.0015563312102166238 -2.0926675637134445e-06 0.99999909600374215 -0.0013446141898199478 
Triangulations 0

TShapes 14
Ve
4.77096184425818e-07
20.000589 18.000509 9.264
0 0

0101101
*
Ve
4.77096184425818e-07
20.000627 0.000542 9.288203
0 0

0101101
*
Ed
 4.77096184425818e-07 1 1 0
1  1 0 0 17.999983271874
0

0101000
+14 0 -13 0 *
Ve
4.77096184425818e-07
19.999362 -0.000551 9.288207
0 0

0101101
*
Ed
 4.77096184425818e-07 1 1 0
1  2 0 0 0.00167179245123316
0

0101000
+13 0 -11 0 *
Ve
4.77096184425818e-07
-0.000589 -0.000509 9.319333
0 0

0101101
*
Ed
 4.77096184425818e-07 1 1 0
1  3 0 0 19.9999752207857
0

0101000
+11 0 -9 0 *
Ve
4.77096184425818e-07
-0.000627 17.999458 9.29513
0 0

0101101
*
Ed
 4.77096184425818e-07 1 1 0
1  4 0 0 17.999983271874
0

0101000
+9 0 -7 0 *
Ve
4.77096184425818e-07
0.000638 18.000551 9.295127
0 0

0101101
*
Ed
 4.77096184425818e-07 1 1 0
1  5 0 0 0.00167179035767107
0

0101000
+7 0 -5 0 *
Ed
 4.77096184425818e-07 1 1 0
1  6 0 0 19.999975222342
0

0101000
+5 0 -14 0 *
Wi

0101100
+12 0 +10 0 +8 0 +6 0 +4 0 +3 0 *
Fa
0  4.77096184425818e-07 1 0

1111000
+2 0 *

+1 0 