
CASCADE Topology V3, (c) Open Cascade
Locations 0
Curve2ds 0
Curves 5
1 10.020156 9.2396320000000003 0.88540600000000003 -4.5874873792536897e-05 -1.2124966642721372e-05 0.99999999887424051 
1 10.019788999999999 9.2395350000000001 8.8854279999999992 0.00020209182231495869 0.9999999795786142 -1.2909466000206994e-06 
1 10.021511 17.760414000000001 8.8854170000000003 4.5874942607119835e-05 5.8749926497977945e-06 -0.99999999893048708 
1 10.021877999999999 17.760460999999999 0.88540700000000006 -0.00020801330831151581 -0.9999999782372152 -1.6001023717773613e-05 
1 10.021865 17.697965 0.88540600000000003 -0.00020204926492205179 -0.99999997958804709 0 
Polygon3D 0
PolygonOnTriangulations 0
Surfaces 1
1 10.020833451702304 13.500008952609228 4.8854204249679087 -0.99999997852994904 0.00020208130932700691 -4.5861160254610858e-05 -0.00020208130953952027 -0.99999997958157205 -2.3133511361019224e-25 -4.5861159318198059e-05 9.2676833212535611e-09 0.9999999989483771 
Triangulations 0

TShapes 12
Ve
2.70577883298984e-07
10.020156 9.239632 0.885406
0 0

0101101
*
Ve
2.70577883298984e-07
10.019789 9.239535 8.885428
0 0

0101101
*
Ed
 2.70577883298984e-07 1 1 0
1  1 0 0 8.0000220090061
0

0101000
+12 0 -11 0 *
Ve
2.70577883298984e-07
10.021511 17.760414 8.885417
0 0

0101101
*
Ed
 2.70577883298984e-07 1 1 0
1  2 0 0 8.52087917400816
0

0101000
+11 0 -9 0 *
Ve
2.70577883298984e-07
10.021878 17.760461 0.885407
0 0

0101101
*
Ed
 2.70577883298984e-07 1 1 0
1  3 0 0 8.00001000855611
0

0101000
+9 0 -7 0 *
Ve
2.70577883298984e-07
10.021865 17.697965 0.885406
0 0

0101101
*
Ed
 2.70577883298984e-07 1 1 0
1  4 0 0 0.0624960013600865
0

0101000
+7 0 -5 0 *
Ed
 2.70577883298984e-07 1 1 0
1  5 0 0 8.4583331726511
0

0101000
+5 0 -12 0 *
Wi

0101100
+10 0 +8 0 +6 0 +4 0 +3 0 *
Fa
0  2.70577883298984e-07 1 0

1111000
+2 0 *

+1 0 