
CASCADE Topology V3, (c) Open Cascade
Locations 0
Curve2ds 0
Curves 4
1 19.792490000000001 0.49998700000000001 0.88539299999999999 -5.1142781092220457e-05 0.99999999868860134 2.6857102919951957e-06 
1 19.791595000000001 18.000012999999999 0.88544 -9.4374999579919855e-05 0 0.99999999554667973 
1 19.790839999999999 18.000012999999999 8.8854399999999991 5.1142819084112648e-05 -0.99999999869134226 -1.3142847361699031e-06 
1 19.791734999999999 0.5 8.8854170000000003 9.4374716455648377e-05 -1.6249951177740548e-06 -0.9999999955453861 
Polygon3D 0
PolygonOnTriangulations 0
Surfaces 1
1 19.791665000306818 9.2499991323508279 4.8854214803798914 0.99999999423891373 5.1142611111045136e-05 9.4374816340542556e-05 -9.4374816463964391e-05 -1.8339230612567028e-25 0.99999999554669716 5.114261088329159e-05 -0.99999999869221667 4.8265745370927895e-09 
Triangulations 0

TShapes 10
Ve
1e-07
19.79249 0.499987 0.885393
0 0

0101101
*
Ve
1e-07
19.791595 18.000013 0.88544
0 0

0101101
*
Ed
 1e-07 1 1 0
1  1 0 0 17.5000260229495
0

0101000
+10 0 -9 0 *
Ve
1e-07
19.79084 18.000013 8.88544
0 0

0101101
*
Ed
 1e-07 1 1 0
1  2 0 0 8.00000003562656
0

0101000
+9 0 -7 0 *
Ve
1e-07
19.791735 0.5 8.885417
0 0

0101101
*
Ed
 1e-07 1 1 0
1  3 0 0 17.5000130229015
0

0101000
+7 0 -5 0 *
Ed
 1e-07 1 1 0
1  4 0 0 8.00002403563702
0

0101000
+5 0 -10 0 *
Wi

0101100
+8 0 +6 0 +4 0 +3 0 *
Fa
0  1e-07 1 0

1111000
+2 0 *

+1 0 