
CASCADE Topology V3, (c) Open Cascade
Locations 0
Curve2ds 5
7 0 0  1 2 2  -3.9999628907256719 -4.1301842220441811  -3.9999408907256724 -4.1302862220441812 
 0 2 0.00010434557968600305 2
7 0 0  1 2 2  -3.9999408907256724 -4.1302862220441812  4.0000591092743276 -4.1302052220441814 
 0 2 8.0000000004100613 2
7 0 0  1 2 2  4.0000591092743276 -4.1302052220441814  3.9999641092743277 4.1302597779558186 
 0 2 8.2604650005462776 2
7 0 0  1 2 2  3.9999641092743277 4.1302597779558186  -4.000045890725672 4.1302277779558185 
 0 2 8.000010000064 2
7 0 0  1 2 2  -4.000045890725672 4.1302277779558185  -3.9999628907256719 -4.1301842220441802 
 0 2 8.2604120004169879 2
Curves 5
8 0 0.00010434557968600305
7 0 0  1 2 2  10.021059073558025 0.50228703394088559 0.88541626253993666  10.021059073558076 0.50218503371786483 0.88543826150591132 
 0 2 0.00010434557968600305 2
8 0 8.0000000004100613
7 0 0  1 2 2  10.021059073558076 0.50218503371786483 0.88543826150591132  10.020683073559502 0.5021849318670375 8.8854382530799736 
 0 2 8.0000000004100613 2
8 0 8.2604650005462776
7 0 0  1 2 2  10.020683073559502 0.5021849318670375 8.8854382530799736  10.020599335649477 8.7626499319812048 8.8854269915193047 
 0 2 8.2604650005462776 2
8 0 8.000010000064
7 0 0  1 2 2  10.020599335649477 8.7626499319812048 8.8854269915193047  10.020975335621301 8.7626990339334032 0.88541700044197924 
 0 2 8.000010000064 2
8 0 8.2604120004169879
7 0 0  1 2 2  10.020975335621301 8.7626990339334032 0.8854170004419788  10.021059073558025 0.50228703394088647 0.88541626253993666 
 0 2 8.2604120004169879 2
Polygon3D 0
PolygonOnTriangulations 0
Surfaces 1
9 0 0 0 0 1 1 2 2 2 2 10.021059078493066 0.50218503478232623 0.88533326150603209  10.020975335296894 8.7627310339334006 0.88541700076637042  
10.020683074380658 0.50210393186704572 8.8854382522588562  10.020599331184487 8.762649931018121 8.8855219915191945  

-4.0000458907256728 2
4.0000591092743276 2

-4.1302862220441812 2
4.1302597779558194 2

Triangulations 0

TShapes 12
Ve
1e-07
10.021059073558 0.502287033940886 0.885416262539937
0 0

0101101
*
Ve
1e-07
10.0210590735581 0.502185033717865 0.885438261505911
0 0

0101101
*
Ed
 1e-07 1 1 0
1  1 0 0 0.000104345579686003
2  1 1 0 0 0.000104345579686003
0

0101000
+12 0 -11 0 *
Ve
1e-07
10.0206830735595 0.502184931867037 8.88543825307997
0 0

0101101
*
Ed
 1e-07 1 1 0
1  2 0 0 8.00000000041006
2  2 1 0 0 8.00000000041006
0

0101000
+11 0 -9 0 *
Ve
1e-07
10.0205993356495 8.7626499319812 8.8854269915193
0 0

0101101
*
Ed
 1e-07 1 1 0
1  3 0 0 8.26046500054628
2  3 1 0 0 8.26046500054628
0

0101000
+9 0 -7 0 *
Ve
1e-07
10.0209753356213 8.7626990339334 0.885417000441979
0 0

0101101
*
Ed
 1e-07 1 1 0
1  4 0 0 8.000010000064
2  4 1 0 0 8.000010000064
0

0101000
+7 0 -5 0 *
Ed
 1e-07 1 1 0
1  5 0 0 8.26041200041699
2  5 1 0 0 8.26041200041699
0

0101000
+5 0 -12 0 *
Wi

0101100
+10 0 +8 0 +6 0 +4 0 +3 0 *
Fa
0  1e-07 1 0

1111000
+2 0 *

+1 0 