
CASCADE Topology V3, (c) Open Cascade
Locations 0
Curve2ds 0
Curves 4
1 -0.00020900000000000001 -1.2999999999999999e-05 0.44775599999999999 0.99999988604855761 1.2999726824340617e-06 -0.00047738996814924707 
1 20.000209000000002 1.2999999999999999e-05 0.43820799999999999 0 0.9999999995382578 -3.0388888874855066e-05 
1 20.000209000000002 18.000012999999999 0.43766100000000002 -0.99999988604855761 -1.2999726823493215e-06 0.00047738996814924707 
1 -0.00020900000000000001 17.999987000000001 0.44720900000000002 0 -0.9999999995382578 3.0388888874855066e-05 
Polygon3D 0
PolygonOnTriangulations 0
Surfaces 1
1 10.000000000000002 8.9999999999999982 0.4427085 0.00047738992842450285 3.0388885412023607e-05 0.99999988558767938 0.99999988604942158 -4.9293002141732126e-25 -0.00047738992864493395 -1.4507347838445024e-08 0.99999999953825791 -3.0388881949192538e-05 
Triangulations 0

TShapes 10
Ve
1e-07
-0.000209 -1.3e-05 0.447756
0 0

0101101
*
Ve
1e-07
20.000209 1.3e-05 0.438208
0 0

0101101
*
Ed
 1e-07 1 1 0
1  1 0 0 20.0004202790767
0

0101000
+10 0 -9 0 *
Ve
1e-07
20.000209 18.000013 0.437661
0 0

0101101
*
Ed
 1e-07 1 1 0
1  2 0 0 18.0000000083114
0

0101000
+9 0 -7 0 *
Ve
1e-07
-0.000209 17.999987 0.447209
0 0

0101101
*
Ed
 1e-07 1 1 0
1  3 0 0 20.0004202790767
0

0101000
+7 0 -5 0 *
Ed
 1e-07 1 1 0
1  4 0 0 18.0000000083114
0

0101000
+5 0 -10 0 *
Wi

0101100
+8 0 +6 0 +4 0 +3 0 *
Fa
0  1e-07 1 0

1111000
+2 0 *

+1 0 