
CASCADE Topology V3, (c) Open Cascade
Locations 0
Curve2ds 0
Curves 5
1 19.500022000000001 17.792193000000001 8.8853950000000008 -0.99999999597523193 -8.9692104949142836e-05 2.2051232205798189e-06 
1 -2.1999999999999999e-05 17.790444000000001 8.8854380000000006 2.4999937407090538e-06 8.6249784054305767e-05 -0.99999999627736247 
1 -1.9999999999999999e-06 17.791134 0.88541800000000004 0.99999992773551771 9.596314320061764e-05 -0.0003678587156597811 
1 0.062521999999999994 17.791139999999999 0.88539500000000004 0.99999999597484934 8.9723472307772368e-05 0 
1 19.500022000000001 17.792884000000001 0.88539500000000004 0 -8.6374999677765477e-05 0.99999999626967973 
Polygon3D 0
PolygonOnTriangulations 0
Surfaces 1
1 9.750001453800099 17.791663818493884 4.8854088900420622 8.9710581745100788e-05 -0.99999999224962088 -8.6329425865684696e-05 -0.99999999597600575 -8.971058207939695e-05 5.9867732499012956e-25 -7.7446630449907218e-09 8.6329425518295587e-05 -0.99999999627361513 
Triangulations 0

TShapes 12
Ve
5.48309911607703e-07
19.500022 17.792193 8.885395
0 0

0101101
*
Ve
5.48309911607703e-07
-2.2e-05 17.790444 8.885438
0 0

0101101
*
Ed
 5.48309911607703e-07 1 1 0
1  1 0 0 19.5000440784832
0

0101000
+12 0 -11 0 *
Ve
5.48309911607703e-07
-2e-06 17.791134 0.885418
0 0

0101101
*
Ed
 5.48309911607703e-07 1 1 0
1  2 0 0 8.00002002978118
0

0101000
+11 0 -9 0 *
Ve
5.48309911607703e-07
0.062522 17.79114 0.885395
0 0

0101101
*
Ed
 5.48309911607703e-07 1 1 0
1  3 0 0 0.0625240045182648
0

0101000
+9 0 -7 0 *
Ve
5.48309911607703e-07
19.500022 17.792884 0.885395
0 0

0101101
*
Ed
 5.48309911607703e-07 1 1 0
1  4 0 0 19.4375000782389
0

0101000
+7 0 -5 0 *
Ed
 5.48309911607703e-07 1 1 0
1  5 0 0 8.00000002984256
0

0101000
+5 0 -12 0 *
Wi

0101100
+10 0 +8 0 +6 0 +4 0 +3 0 *
Fa
0  5.48309911607703e-07 1 0

1111000
+2 0 *

+1 0 