
CASCADE Topology V3, (c) Open Cascade
Locations 0
Curve2ds 0
Curves 4
1 0.49998900000000002 8.9785629999999994 0.88540600000000003 0.99999999896306901 4.5526263027698516e-05 1.1052618769684678e-06 
1 19.500011000000001 8.9794280000000004 0.88542699999999996 0 4.3249999959599281e-05 0.99999999906471881 
1 19.500011000000001 8.9797740000000008 8.885427 -0.99999999896114244 -4.5578920933288135e-05 -5.263154841980274e-07 
1 0.5 8.9789080000000006 8.8854170000000003 -1.3749981080956219e-06 -4.3124940663208482e-05 -0.99999999906917458 
Polygon3D 0
PolygonOnTriangulations 0
Surfaces 1
1 10.000000814820423 8.9791682498766576 4.8854184351864216 4.5552556685589302e-05 -0.99999999802990491 4.3187438850512243e-05 -0.99999999896248226 -4.5552556728070586e-05 1.6791363001942345e-25 1.9672982581780385e-09 -4.3187438805704512e-05 -0.99999999906742265 
Triangulations 0

TShapes 10
Ve
3.00293260124818e-07
0.499989 8.978563 0.885406
0 0

0101101
*
Ve
3.00293260124818e-07
19.500011 8.979428 0.885427
0 0

0101101
*
Ed
 3.00293260124818e-07 1 1 0
1  1 0 0 19.0000220197017
0

0101000
+10 0 -9 0 *
Ve
3.00293260124818e-07
19.500011 8.979774 8.885427
0 0

0101101
*
Ed
 3.00293260124818e-07 1 1 0
1  2 0 0 8.00000000748225
0

0101000
+9 0 -7 0 *
Ve
3.00293260124818e-07
0.5 8.978908 8.885417
0 0

0101101
*
Ed
 3.00293260124818e-07 1 1 0
1  3 0 0 19.0000110197383
0

0101000
+7 0 -5 0 *
Ed
 3.00293260124818e-07 1 1 0
1  4 0 0 8.00001100744661
0

0101000
+5 0 -10 0 *
Wi

0101100
+8 0 +6 0 +4 0 +3 0 *
Fa
0  3.00293260124818e-07 1 0

1111000
+2 0 *

+1 0 